%TF.GenerationSoftware,KiCad,Pcbnew,8.0.2*%
%TF.CreationDate,2025-01-22T12:10:54+05:30*%
%TF.ProjectId,pogo_adapter,706f676f-5f61-4646-9170-7465722e6b69,rev?*%
%TF.SameCoordinates,Original*%
%TF.FileFunction,Drillmap*%
%TF.FilePolarity,Positive*%
%FSLAX45Y45*%
G04 Gerber Fmt 4.5, Leading zero omitted, Abs format (unit mm)*
G04 Created by KiCad (PCBNEW 8.0.2) date 2025-01-22 12:10:54*
%MOMM*%
%LPD*%
G01*
G04 APERTURE LIST*
%ADD10C,0.050000*%
%ADD11C,0.200000*%
%ADD12C,0.100000*%
%ADD13C,0.220000*%
G04 APERTURE END LIST*
D10*
X8000000Y-7000000D02*
X11000000Y-7000000D01*
X8000000Y-9000000D02*
X8000000Y-7000000D01*
X11000000Y-9000000D02*
X8000000Y-9000000D01*
X11000000Y-7000000D02*
X11000000Y-9000000D01*
D11*
D12*
X8085000Y-7535000D02*
X8115000Y-7565000D01*
X8115000Y-7535000D02*
X8085000Y-7565000D01*
X8085000Y-7785000D02*
X8115000Y-7815000D01*
X8115000Y-7785000D02*
X8085000Y-7815000D01*
X8085000Y-8035000D02*
X8115000Y-8065000D01*
X8115000Y-8035000D02*
X8085000Y-8065000D01*
X8085000Y-8285000D02*
X8115000Y-8315000D01*
X8115000Y-8285000D02*
X8085000Y-8315000D01*
X8335000Y-8385000D02*
X8365000Y-8415000D01*
X8365000Y-8385000D02*
X8335000Y-8415000D01*
X8635000Y-8585000D02*
X8665000Y-8615000D01*
X8665000Y-8585000D02*
X8635000Y-8615000D01*
X8735000Y-7585000D02*
X8765000Y-7615000D01*
X8765000Y-7585000D02*
X8735000Y-7615000D01*
X8985000Y-7585000D02*
X9015000Y-7615000D01*
X9015000Y-7585000D02*
X8985000Y-7615000D01*
X9035000Y-8585000D02*
X9065000Y-8615000D01*
X9065000Y-8585000D02*
X9035000Y-8615000D01*
X9185000Y-7085000D02*
X9215000Y-7115000D01*
X9215000Y-7085000D02*
X9185000Y-7115000D01*
X9235000Y-8135000D02*
X9265000Y-8165000D01*
X9265000Y-8135000D02*
X9235000Y-8165000D01*
X9235000Y-8885000D02*
X9265000Y-8915000D01*
X9265000Y-8885000D02*
X9235000Y-8915000D01*
X9335000Y-7585000D02*
X9365000Y-7615000D01*
X9365000Y-7585000D02*
X9335000Y-7615000D01*
X9335000Y-7985000D02*
X9365000Y-8015000D01*
X9365000Y-7985000D02*
X9335000Y-8015000D01*
X9435000Y-7085000D02*
X9465000Y-7115000D01*
X9465000Y-7085000D02*
X9435000Y-7115000D01*
X9435000Y-8535000D02*
X9465000Y-8565000D01*
X9465000Y-8535000D02*
X9435000Y-8565000D01*
X9435000Y-8885000D02*
X9465000Y-8915000D01*
X9465000Y-8885000D02*
X9435000Y-8915000D01*
X9585000Y-8185000D02*
X9615000Y-8215000D01*
X9615000Y-8185000D02*
X9585000Y-8215000D01*
X9635000Y-7085000D02*
X9665000Y-7115000D01*
X9665000Y-7085000D02*
X9635000Y-7115000D01*
X9685000Y-8535000D02*
X9715000Y-8565000D01*
X9715000Y-8535000D02*
X9685000Y-8565000D01*
X9685000Y-8885000D02*
X9715000Y-8915000D01*
X9715000Y-8885000D02*
X9685000Y-8915000D01*
X9885000Y-7085000D02*
X9915000Y-7115000D01*
X9915000Y-7085000D02*
X9885000Y-7115000D01*
X10135000Y-7085000D02*
X10165000Y-7115000D01*
X10165000Y-7085000D02*
X10135000Y-7115000D01*
X10135000Y-8785000D02*
X10165000Y-8815000D01*
X10165000Y-8785000D02*
X10135000Y-8815000D01*
X10235000Y-8435000D02*
X10265000Y-8465000D01*
X10265000Y-8435000D02*
X10235000Y-8465000D01*
X10245000Y-7745000D02*
X10275000Y-7775000D01*
X10275000Y-7745000D02*
X10245000Y-7775000D01*
X10385000Y-8345000D02*
X10415000Y-8375000D01*
X10415000Y-8345000D02*
X10385000Y-8375000D01*
X10465000Y-7925000D02*
X10495000Y-7955000D01*
X10495000Y-7925000D02*
X10465000Y-7955000D01*
X10885000Y-7085000D02*
X10915000Y-7115000D01*
X10915000Y-7085000D02*
X10885000Y-7115000D01*
X10885000Y-7385000D02*
X10915000Y-7415000D01*
X10915000Y-7385000D02*
X10885000Y-7415000D01*
X10885000Y-8635000D02*
X10915000Y-8665000D01*
X10915000Y-8635000D02*
X10885000Y-8665000D01*
X10885000Y-8835000D02*
X10915000Y-8865000D01*
X10915000Y-8835000D02*
X10885000Y-8865000D01*
X10852500Y-7555000D02*
G75*
G02*
X10787500Y-7555000I-32500J0D01*
G01*
X10787500Y-7555000D02*
G75*
G02*
X10852500Y-7555000I32500J0D01*
G01*
X10852500Y-7682000D02*
G75*
G02*
X10787500Y-7682000I-32500J0D01*
G01*
X10787500Y-7682000D02*
G75*
G02*
X10852500Y-7682000I32500J0D01*
G01*
X10852500Y-7809000D02*
G75*
G02*
X10787500Y-7809000I-32500J0D01*
G01*
X10787500Y-7809000D02*
G75*
G02*
X10852500Y-7809000I32500J0D01*
G01*
X10852500Y-7936000D02*
G75*
G02*
X10787500Y-7936000I-32500J0D01*
G01*
X10787500Y-7936000D02*
G75*
G02*
X10852500Y-7936000I32500J0D01*
G01*
X10852500Y-8063000D02*
G75*
G02*
X10787500Y-8063000I-32500J0D01*
G01*
X10787500Y-8063000D02*
G75*
G02*
X10852500Y-8063000I32500J0D01*
G01*
X10852500Y-8190000D02*
G75*
G02*
X10787500Y-8190000I-32500J0D01*
G01*
X10787500Y-8190000D02*
G75*
G02*
X10852500Y-8190000I32500J0D01*
G01*
X10852500Y-8317000D02*
G75*
G02*
X10787500Y-8317000I-32500J0D01*
G01*
X10787500Y-8317000D02*
G75*
G02*
X10852500Y-8317000I32500J0D01*
G01*
X10852500Y-8444000D02*
G75*
G02*
X10787500Y-8444000I-32500J0D01*
G01*
X10787500Y-8444000D02*
G75*
G02*
X10852500Y-8444000I32500J0D01*
G01*
D13*
X8250000Y-7140000D02*
X8250000Y-7360000D01*
X8140000Y-7250000D02*
X8360000Y-7250000D01*
X8250000Y-8640000D02*
X8250000Y-8860000D01*
X8140000Y-8750000D02*
X8360000Y-8750000D01*
X10500000Y-7140000D02*
X10500000Y-7360000D01*
X10390000Y-7250000D02*
X10610000Y-7250000D01*
X10500000Y-8640000D02*
X10500000Y-8860000D01*
X10390000Y-8750000D02*
X10610000Y-8750000D01*
D11*
X8258277Y-9313984D02*
X8258277Y-9113984D01*
X8258277Y-9113984D02*
X8305896Y-9113984D01*
X8305896Y-9113984D02*
X8334467Y-9123508D01*
X8334467Y-9123508D02*
X8353515Y-9142555D01*
X8353515Y-9142555D02*
X8363039Y-9161603D01*
X8363039Y-9161603D02*
X8372562Y-9199698D01*
X8372562Y-9199698D02*
X8372562Y-9228270D01*
X8372562Y-9228270D02*
X8363039Y-9266365D01*
X8363039Y-9266365D02*
X8353515Y-9285412D01*
X8353515Y-9285412D02*
X8334467Y-9304460D01*
X8334467Y-9304460D02*
X8305896Y-9313984D01*
X8305896Y-9313984D02*
X8258277Y-9313984D01*
X8458277Y-9313984D02*
X8458277Y-9180650D01*
X8458277Y-9218746D02*
X8467801Y-9199698D01*
X8467801Y-9199698D02*
X8477324Y-9190174D01*
X8477324Y-9190174D02*
X8496372Y-9180650D01*
X8496372Y-9180650D02*
X8515420Y-9180650D01*
X8582086Y-9313984D02*
X8582086Y-9180650D01*
X8582086Y-9113984D02*
X8572563Y-9123508D01*
X8572563Y-9123508D02*
X8582086Y-9133031D01*
X8582086Y-9133031D02*
X8591610Y-9123508D01*
X8591610Y-9123508D02*
X8582086Y-9113984D01*
X8582086Y-9113984D02*
X8582086Y-9133031D01*
X8705896Y-9313984D02*
X8686848Y-9304460D01*
X8686848Y-9304460D02*
X8677324Y-9285412D01*
X8677324Y-9285412D02*
X8677324Y-9113984D01*
X8810658Y-9313984D02*
X8791610Y-9304460D01*
X8791610Y-9304460D02*
X8782086Y-9285412D01*
X8782086Y-9285412D02*
X8782086Y-9113984D01*
X9039229Y-9313984D02*
X9039229Y-9113984D01*
X9039229Y-9113984D02*
X9105896Y-9256841D01*
X9105896Y-9256841D02*
X9172563Y-9113984D01*
X9172563Y-9113984D02*
X9172563Y-9313984D01*
X9353515Y-9313984D02*
X9353515Y-9209222D01*
X9353515Y-9209222D02*
X9343991Y-9190174D01*
X9343991Y-9190174D02*
X9324944Y-9180650D01*
X9324944Y-9180650D02*
X9286848Y-9180650D01*
X9286848Y-9180650D02*
X9267801Y-9190174D01*
X9353515Y-9304460D02*
X9334467Y-9313984D01*
X9334467Y-9313984D02*
X9286848Y-9313984D01*
X9286848Y-9313984D02*
X9267801Y-9304460D01*
X9267801Y-9304460D02*
X9258277Y-9285412D01*
X9258277Y-9285412D02*
X9258277Y-9266365D01*
X9258277Y-9266365D02*
X9267801Y-9247317D01*
X9267801Y-9247317D02*
X9286848Y-9237793D01*
X9286848Y-9237793D02*
X9334467Y-9237793D01*
X9334467Y-9237793D02*
X9353515Y-9228270D01*
X9448753Y-9180650D02*
X9448753Y-9380650D01*
X9448753Y-9190174D02*
X9467801Y-9180650D01*
X9467801Y-9180650D02*
X9505896Y-9180650D01*
X9505896Y-9180650D02*
X9524944Y-9190174D01*
X9524944Y-9190174D02*
X9534467Y-9199698D01*
X9534467Y-9199698D02*
X9543991Y-9218746D01*
X9543991Y-9218746D02*
X9543991Y-9275889D01*
X9543991Y-9275889D02*
X9534467Y-9294936D01*
X9534467Y-9294936D02*
X9524944Y-9304460D01*
X9524944Y-9304460D02*
X9505896Y-9313984D01*
X9505896Y-9313984D02*
X9467801Y-9313984D01*
X9467801Y-9313984D02*
X9448753Y-9304460D01*
X9629705Y-9294936D02*
X9639229Y-9304460D01*
X9639229Y-9304460D02*
X9629705Y-9313984D01*
X9629705Y-9313984D02*
X9620182Y-9304460D01*
X9620182Y-9304460D02*
X9629705Y-9294936D01*
X9629705Y-9294936D02*
X9629705Y-9313984D01*
X9629705Y-9190174D02*
X9639229Y-9199698D01*
X9639229Y-9199698D02*
X9629705Y-9209222D01*
X9629705Y-9209222D02*
X9620182Y-9199698D01*
X9620182Y-9199698D02*
X9629705Y-9190174D01*
X9629705Y-9190174D02*
X9629705Y-9209222D01*
D12*
X7967500Y-9627500D02*
X7997500Y-9657500D01*
X7997500Y-9627500D02*
X7967500Y-9657500D01*
D11*
X8296372Y-9533984D02*
X8315420Y-9533984D01*
X8315420Y-9533984D02*
X8334467Y-9543508D01*
X8334467Y-9543508D02*
X8343991Y-9553031D01*
X8343991Y-9553031D02*
X8353515Y-9572079D01*
X8353515Y-9572079D02*
X8363039Y-9610174D01*
X8363039Y-9610174D02*
X8363039Y-9657793D01*
X8363039Y-9657793D02*
X8353515Y-9695889D01*
X8353515Y-9695889D02*
X8343991Y-9714936D01*
X8343991Y-9714936D02*
X8334467Y-9724460D01*
X8334467Y-9724460D02*
X8315420Y-9733984D01*
X8315420Y-9733984D02*
X8296372Y-9733984D01*
X8296372Y-9733984D02*
X8277324Y-9724460D01*
X8277324Y-9724460D02*
X8267801Y-9714936D01*
X8267801Y-9714936D02*
X8258277Y-9695889D01*
X8258277Y-9695889D02*
X8248753Y-9657793D01*
X8248753Y-9657793D02*
X8248753Y-9610174D01*
X8248753Y-9610174D02*
X8258277Y-9572079D01*
X8258277Y-9572079D02*
X8267801Y-9553031D01*
X8267801Y-9553031D02*
X8277324Y-9543508D01*
X8277324Y-9543508D02*
X8296372Y-9533984D01*
X8448753Y-9714936D02*
X8458277Y-9724460D01*
X8458277Y-9724460D02*
X8448753Y-9733984D01*
X8448753Y-9733984D02*
X8439229Y-9724460D01*
X8439229Y-9724460D02*
X8448753Y-9714936D01*
X8448753Y-9714936D02*
X8448753Y-9733984D01*
X8524944Y-9533984D02*
X8648753Y-9533984D01*
X8648753Y-9533984D02*
X8582086Y-9610174D01*
X8582086Y-9610174D02*
X8610658Y-9610174D01*
X8610658Y-9610174D02*
X8629705Y-9619698D01*
X8629705Y-9619698D02*
X8639229Y-9629222D01*
X8639229Y-9629222D02*
X8648753Y-9648270D01*
X8648753Y-9648270D02*
X8648753Y-9695889D01*
X8648753Y-9695889D02*
X8639229Y-9714936D01*
X8639229Y-9714936D02*
X8629705Y-9724460D01*
X8629705Y-9724460D02*
X8610658Y-9733984D01*
X8610658Y-9733984D02*
X8553515Y-9733984D01*
X8553515Y-9733984D02*
X8534467Y-9724460D01*
X8534467Y-9724460D02*
X8524944Y-9714936D01*
X8772563Y-9533984D02*
X8791610Y-9533984D01*
X8791610Y-9533984D02*
X8810658Y-9543508D01*
X8810658Y-9543508D02*
X8820182Y-9553031D01*
X8820182Y-9553031D02*
X8829705Y-9572079D01*
X8829705Y-9572079D02*
X8839229Y-9610174D01*
X8839229Y-9610174D02*
X8839229Y-9657793D01*
X8839229Y-9657793D02*
X8829705Y-9695889D01*
X8829705Y-9695889D02*
X8820182Y-9714936D01*
X8820182Y-9714936D02*
X8810658Y-9724460D01*
X8810658Y-9724460D02*
X8791610Y-9733984D01*
X8791610Y-9733984D02*
X8772563Y-9733984D01*
X8772563Y-9733984D02*
X8753515Y-9724460D01*
X8753515Y-9724460D02*
X8743991Y-9714936D01*
X8743991Y-9714936D02*
X8734467Y-9695889D01*
X8734467Y-9695889D02*
X8724944Y-9657793D01*
X8724944Y-9657793D02*
X8724944Y-9610174D01*
X8724944Y-9610174D02*
X8734467Y-9572079D01*
X8734467Y-9572079D02*
X8743991Y-9553031D01*
X8743991Y-9553031D02*
X8753515Y-9543508D01*
X8753515Y-9543508D02*
X8772563Y-9533984D01*
X8963039Y-9533984D02*
X8982086Y-9533984D01*
X8982086Y-9533984D02*
X9001134Y-9543508D01*
X9001134Y-9543508D02*
X9010658Y-9553031D01*
X9010658Y-9553031D02*
X9020182Y-9572079D01*
X9020182Y-9572079D02*
X9029705Y-9610174D01*
X9029705Y-9610174D02*
X9029705Y-9657793D01*
X9029705Y-9657793D02*
X9020182Y-9695889D01*
X9020182Y-9695889D02*
X9010658Y-9714936D01*
X9010658Y-9714936D02*
X9001134Y-9724460D01*
X9001134Y-9724460D02*
X8982086Y-9733984D01*
X8982086Y-9733984D02*
X8963039Y-9733984D01*
X8963039Y-9733984D02*
X8943991Y-9724460D01*
X8943991Y-9724460D02*
X8934467Y-9714936D01*
X8934467Y-9714936D02*
X8924944Y-9695889D01*
X8924944Y-9695889D02*
X8915420Y-9657793D01*
X8915420Y-9657793D02*
X8915420Y-9610174D01*
X8915420Y-9610174D02*
X8924944Y-9572079D01*
X8924944Y-9572079D02*
X8934467Y-9553031D01*
X8934467Y-9553031D02*
X8943991Y-9543508D01*
X8943991Y-9543508D02*
X8963039Y-9533984D01*
X9115420Y-9733984D02*
X9115420Y-9600650D01*
X9115420Y-9619698D02*
X9124944Y-9610174D01*
X9124944Y-9610174D02*
X9143991Y-9600650D01*
X9143991Y-9600650D02*
X9172563Y-9600650D01*
X9172563Y-9600650D02*
X9191610Y-9610174D01*
X9191610Y-9610174D02*
X9201134Y-9629222D01*
X9201134Y-9629222D02*
X9201134Y-9733984D01*
X9201134Y-9629222D02*
X9210658Y-9610174D01*
X9210658Y-9610174D02*
X9229705Y-9600650D01*
X9229705Y-9600650D02*
X9258277Y-9600650D01*
X9258277Y-9600650D02*
X9277325Y-9610174D01*
X9277325Y-9610174D02*
X9286848Y-9629222D01*
X9286848Y-9629222D02*
X9286848Y-9733984D01*
X9382086Y-9733984D02*
X9382086Y-9600650D01*
X9382086Y-9619698D02*
X9391610Y-9610174D01*
X9391610Y-9610174D02*
X9410658Y-9600650D01*
X9410658Y-9600650D02*
X9439229Y-9600650D01*
X9439229Y-9600650D02*
X9458277Y-9610174D01*
X9458277Y-9610174D02*
X9467801Y-9629222D01*
X9467801Y-9629222D02*
X9467801Y-9733984D01*
X9467801Y-9629222D02*
X9477325Y-9610174D01*
X9477325Y-9610174D02*
X9496372Y-9600650D01*
X9496372Y-9600650D02*
X9524944Y-9600650D01*
X9524944Y-9600650D02*
X9543991Y-9610174D01*
X9543991Y-9610174D02*
X9553515Y-9629222D01*
X9553515Y-9629222D02*
X9553515Y-9733984D01*
X9943991Y-9524460D02*
X9772563Y-9781603D01*
X10201134Y-9533984D02*
X10220182Y-9533984D01*
X10220182Y-9533984D02*
X10239229Y-9543508D01*
X10239229Y-9543508D02*
X10248753Y-9553031D01*
X10248753Y-9553031D02*
X10258277Y-9572079D01*
X10258277Y-9572079D02*
X10267801Y-9610174D01*
X10267801Y-9610174D02*
X10267801Y-9657793D01*
X10267801Y-9657793D02*
X10258277Y-9695889D01*
X10258277Y-9695889D02*
X10248753Y-9714936D01*
X10248753Y-9714936D02*
X10239229Y-9724460D01*
X10239229Y-9724460D02*
X10220182Y-9733984D01*
X10220182Y-9733984D02*
X10201134Y-9733984D01*
X10201134Y-9733984D02*
X10182087Y-9724460D01*
X10182087Y-9724460D02*
X10172563Y-9714936D01*
X10172563Y-9714936D02*
X10163039Y-9695889D01*
X10163039Y-9695889D02*
X10153515Y-9657793D01*
X10153515Y-9657793D02*
X10153515Y-9610174D01*
X10153515Y-9610174D02*
X10163039Y-9572079D01*
X10163039Y-9572079D02*
X10172563Y-9553031D01*
X10172563Y-9553031D02*
X10182087Y-9543508D01*
X10182087Y-9543508D02*
X10201134Y-9533984D01*
X10353515Y-9714936D02*
X10363039Y-9724460D01*
X10363039Y-9724460D02*
X10353515Y-9733984D01*
X10353515Y-9733984D02*
X10343991Y-9724460D01*
X10343991Y-9724460D02*
X10353515Y-9714936D01*
X10353515Y-9714936D02*
X10353515Y-9733984D01*
X10486848Y-9533984D02*
X10505896Y-9533984D01*
X10505896Y-9533984D02*
X10524944Y-9543508D01*
X10524944Y-9543508D02*
X10534468Y-9553031D01*
X10534468Y-9553031D02*
X10543991Y-9572079D01*
X10543991Y-9572079D02*
X10553515Y-9610174D01*
X10553515Y-9610174D02*
X10553515Y-9657793D01*
X10553515Y-9657793D02*
X10543991Y-9695889D01*
X10543991Y-9695889D02*
X10534468Y-9714936D01*
X10534468Y-9714936D02*
X10524944Y-9724460D01*
X10524944Y-9724460D02*
X10505896Y-9733984D01*
X10505896Y-9733984D02*
X10486848Y-9733984D01*
X10486848Y-9733984D02*
X10467801Y-9724460D01*
X10467801Y-9724460D02*
X10458277Y-9714936D01*
X10458277Y-9714936D02*
X10448753Y-9695889D01*
X10448753Y-9695889D02*
X10439229Y-9657793D01*
X10439229Y-9657793D02*
X10439229Y-9610174D01*
X10439229Y-9610174D02*
X10448753Y-9572079D01*
X10448753Y-9572079D02*
X10458277Y-9553031D01*
X10458277Y-9553031D02*
X10467801Y-9543508D01*
X10467801Y-9543508D02*
X10486848Y-9533984D01*
X10743991Y-9733984D02*
X10629706Y-9733984D01*
X10686848Y-9733984D02*
X10686848Y-9533984D01*
X10686848Y-9533984D02*
X10667801Y-9562555D01*
X10667801Y-9562555D02*
X10648753Y-9581603D01*
X10648753Y-9581603D02*
X10629706Y-9591127D01*
X10934468Y-9733984D02*
X10820182Y-9733984D01*
X10877325Y-9733984D02*
X10877325Y-9533984D01*
X10877325Y-9533984D02*
X10858277Y-9562555D01*
X10858277Y-9562555D02*
X10839229Y-9581603D01*
X10839229Y-9581603D02*
X10820182Y-9591127D01*
X11048753Y-9619698D02*
X11029706Y-9610174D01*
X11029706Y-9610174D02*
X11020182Y-9600650D01*
X11020182Y-9600650D02*
X11010658Y-9581603D01*
X11010658Y-9581603D02*
X11010658Y-9572079D01*
X11010658Y-9572079D02*
X11020182Y-9553031D01*
X11020182Y-9553031D02*
X11029706Y-9543508D01*
X11029706Y-9543508D02*
X11048753Y-9533984D01*
X11048753Y-9533984D02*
X11086849Y-9533984D01*
X11086849Y-9533984D02*
X11105896Y-9543508D01*
X11105896Y-9543508D02*
X11115420Y-9553031D01*
X11115420Y-9553031D02*
X11124944Y-9572079D01*
X11124944Y-9572079D02*
X11124944Y-9581603D01*
X11124944Y-9581603D02*
X11115420Y-9600650D01*
X11115420Y-9600650D02*
X11105896Y-9610174D01*
X11105896Y-9610174D02*
X11086849Y-9619698D01*
X11086849Y-9619698D02*
X11048753Y-9619698D01*
X11048753Y-9619698D02*
X11029706Y-9629222D01*
X11029706Y-9629222D02*
X11020182Y-9638746D01*
X11020182Y-9638746D02*
X11010658Y-9657793D01*
X11010658Y-9657793D02*
X11010658Y-9695889D01*
X11010658Y-9695889D02*
X11020182Y-9714936D01*
X11020182Y-9714936D02*
X11029706Y-9724460D01*
X11029706Y-9724460D02*
X11048753Y-9733984D01*
X11048753Y-9733984D02*
X11086849Y-9733984D01*
X11086849Y-9733984D02*
X11105896Y-9724460D01*
X11105896Y-9724460D02*
X11115420Y-9714936D01*
X11115420Y-9714936D02*
X11124944Y-9695889D01*
X11124944Y-9695889D02*
X11124944Y-9657793D01*
X11124944Y-9657793D02*
X11115420Y-9638746D01*
X11115420Y-9638746D02*
X11105896Y-9629222D01*
X11105896Y-9629222D02*
X11086849Y-9619698D01*
X11201134Y-9533984D02*
X11201134Y-9572079D01*
X11277325Y-9533984D02*
X11277325Y-9572079D01*
X11572563Y-9810174D02*
X11563039Y-9800650D01*
X11563039Y-9800650D02*
X11543991Y-9772079D01*
X11543991Y-9772079D02*
X11534468Y-9753031D01*
X11534468Y-9753031D02*
X11524944Y-9724460D01*
X11524944Y-9724460D02*
X11515420Y-9676841D01*
X11515420Y-9676841D02*
X11515420Y-9638746D01*
X11515420Y-9638746D02*
X11524944Y-9591127D01*
X11524944Y-9591127D02*
X11534468Y-9562555D01*
X11534468Y-9562555D02*
X11543991Y-9543508D01*
X11543991Y-9543508D02*
X11563039Y-9514936D01*
X11563039Y-9514936D02*
X11572563Y-9505412D01*
X11629706Y-9533984D02*
X11753515Y-9533984D01*
X11753515Y-9533984D02*
X11686848Y-9610174D01*
X11686848Y-9610174D02*
X11715420Y-9610174D01*
X11715420Y-9610174D02*
X11734468Y-9619698D01*
X11734468Y-9619698D02*
X11743991Y-9629222D01*
X11743991Y-9629222D02*
X11753515Y-9648270D01*
X11753515Y-9648270D02*
X11753515Y-9695889D01*
X11753515Y-9695889D02*
X11743991Y-9714936D01*
X11743991Y-9714936D02*
X11734468Y-9724460D01*
X11734468Y-9724460D02*
X11715420Y-9733984D01*
X11715420Y-9733984D02*
X11658277Y-9733984D01*
X11658277Y-9733984D02*
X11639229Y-9724460D01*
X11639229Y-9724460D02*
X11629706Y-9714936D01*
X11829706Y-9553031D02*
X11839229Y-9543508D01*
X11839229Y-9543508D02*
X11858277Y-9533984D01*
X11858277Y-9533984D02*
X11905896Y-9533984D01*
X11905896Y-9533984D02*
X11924944Y-9543508D01*
X11924944Y-9543508D02*
X11934468Y-9553031D01*
X11934468Y-9553031D02*
X11943991Y-9572079D01*
X11943991Y-9572079D02*
X11943991Y-9591127D01*
X11943991Y-9591127D02*
X11934468Y-9619698D01*
X11934468Y-9619698D02*
X11820182Y-9733984D01*
X11820182Y-9733984D02*
X11943991Y-9733984D01*
X12182087Y-9733984D02*
X12182087Y-9533984D01*
X12267801Y-9733984D02*
X12267801Y-9629222D01*
X12267801Y-9629222D02*
X12258277Y-9610174D01*
X12258277Y-9610174D02*
X12239230Y-9600650D01*
X12239230Y-9600650D02*
X12210658Y-9600650D01*
X12210658Y-9600650D02*
X12191610Y-9610174D01*
X12191610Y-9610174D02*
X12182087Y-9619698D01*
X12391610Y-9733984D02*
X12372563Y-9724460D01*
X12372563Y-9724460D02*
X12363039Y-9714936D01*
X12363039Y-9714936D02*
X12353515Y-9695889D01*
X12353515Y-9695889D02*
X12353515Y-9638746D01*
X12353515Y-9638746D02*
X12363039Y-9619698D01*
X12363039Y-9619698D02*
X12372563Y-9610174D01*
X12372563Y-9610174D02*
X12391610Y-9600650D01*
X12391610Y-9600650D02*
X12420182Y-9600650D01*
X12420182Y-9600650D02*
X12439230Y-9610174D01*
X12439230Y-9610174D02*
X12448753Y-9619698D01*
X12448753Y-9619698D02*
X12458277Y-9638746D01*
X12458277Y-9638746D02*
X12458277Y-9695889D01*
X12458277Y-9695889D02*
X12448753Y-9714936D01*
X12448753Y-9714936D02*
X12439230Y-9724460D01*
X12439230Y-9724460D02*
X12420182Y-9733984D01*
X12420182Y-9733984D02*
X12391610Y-9733984D01*
X12572563Y-9733984D02*
X12553515Y-9724460D01*
X12553515Y-9724460D02*
X12543991Y-9705412D01*
X12543991Y-9705412D02*
X12543991Y-9533984D01*
X12724944Y-9724460D02*
X12705896Y-9733984D01*
X12705896Y-9733984D02*
X12667801Y-9733984D01*
X12667801Y-9733984D02*
X12648753Y-9724460D01*
X12648753Y-9724460D02*
X12639230Y-9705412D01*
X12639230Y-9705412D02*
X12639230Y-9629222D01*
X12639230Y-9629222D02*
X12648753Y-9610174D01*
X12648753Y-9610174D02*
X12667801Y-9600650D01*
X12667801Y-9600650D02*
X12705896Y-9600650D01*
X12705896Y-9600650D02*
X12724944Y-9610174D01*
X12724944Y-9610174D02*
X12734468Y-9629222D01*
X12734468Y-9629222D02*
X12734468Y-9648270D01*
X12734468Y-9648270D02*
X12639230Y-9667317D01*
X12810658Y-9724460D02*
X12829706Y-9733984D01*
X12829706Y-9733984D02*
X12867801Y-9733984D01*
X12867801Y-9733984D02*
X12886849Y-9724460D01*
X12886849Y-9724460D02*
X12896372Y-9705412D01*
X12896372Y-9705412D02*
X12896372Y-9695889D01*
X12896372Y-9695889D02*
X12886849Y-9676841D01*
X12886849Y-9676841D02*
X12867801Y-9667317D01*
X12867801Y-9667317D02*
X12839230Y-9667317D01*
X12839230Y-9667317D02*
X12820182Y-9657793D01*
X12820182Y-9657793D02*
X12810658Y-9638746D01*
X12810658Y-9638746D02*
X12810658Y-9629222D01*
X12810658Y-9629222D02*
X12820182Y-9610174D01*
X12820182Y-9610174D02*
X12839230Y-9600650D01*
X12839230Y-9600650D02*
X12867801Y-9600650D01*
X12867801Y-9600650D02*
X12886849Y-9610174D01*
X12963039Y-9810174D02*
X12972563Y-9800650D01*
X12972563Y-9800650D02*
X12991611Y-9772079D01*
X12991611Y-9772079D02*
X13001134Y-9753031D01*
X13001134Y-9753031D02*
X13010658Y-9724460D01*
X13010658Y-9724460D02*
X13020182Y-9676841D01*
X13020182Y-9676841D02*
X13020182Y-9638746D01*
X13020182Y-9638746D02*
X13010658Y-9591127D01*
X13010658Y-9591127D02*
X13001134Y-9562555D01*
X13001134Y-9562555D02*
X12991611Y-9543508D01*
X12991611Y-9543508D02*
X12972563Y-9514936D01*
X12972563Y-9514936D02*
X12963039Y-9505412D01*
D12*
X7997500Y-9906500D02*
G75*
G02*
X7932500Y-9906500I-32500J0D01*
G01*
X7932500Y-9906500D02*
G75*
G02*
X7997500Y-9906500I32500J0D01*
G01*
D11*
X8296372Y-9797984D02*
X8315420Y-9797984D01*
X8315420Y-9797984D02*
X8334467Y-9807508D01*
X8334467Y-9807508D02*
X8343991Y-9817031D01*
X8343991Y-9817031D02*
X8353515Y-9836079D01*
X8353515Y-9836079D02*
X8363039Y-9874174D01*
X8363039Y-9874174D02*
X8363039Y-9921793D01*
X8363039Y-9921793D02*
X8353515Y-9959889D01*
X8353515Y-9959889D02*
X8343991Y-9978936D01*
X8343991Y-9978936D02*
X8334467Y-9988460D01*
X8334467Y-9988460D02*
X8315420Y-9997984D01*
X8315420Y-9997984D02*
X8296372Y-9997984D01*
X8296372Y-9997984D02*
X8277324Y-9988460D01*
X8277324Y-9988460D02*
X8267801Y-9978936D01*
X8267801Y-9978936D02*
X8258277Y-9959889D01*
X8258277Y-9959889D02*
X8248753Y-9921793D01*
X8248753Y-9921793D02*
X8248753Y-9874174D01*
X8248753Y-9874174D02*
X8258277Y-9836079D01*
X8258277Y-9836079D02*
X8267801Y-9817031D01*
X8267801Y-9817031D02*
X8277324Y-9807508D01*
X8277324Y-9807508D02*
X8296372Y-9797984D01*
X8448753Y-9978936D02*
X8458277Y-9988460D01*
X8458277Y-9988460D02*
X8448753Y-9997984D01*
X8448753Y-9997984D02*
X8439229Y-9988460D01*
X8439229Y-9988460D02*
X8448753Y-9978936D01*
X8448753Y-9978936D02*
X8448753Y-9997984D01*
X8629705Y-9797984D02*
X8591610Y-9797984D01*
X8591610Y-9797984D02*
X8572563Y-9807508D01*
X8572563Y-9807508D02*
X8563039Y-9817031D01*
X8563039Y-9817031D02*
X8543991Y-9845603D01*
X8543991Y-9845603D02*
X8534467Y-9883698D01*
X8534467Y-9883698D02*
X8534467Y-9959889D01*
X8534467Y-9959889D02*
X8543991Y-9978936D01*
X8543991Y-9978936D02*
X8553515Y-9988460D01*
X8553515Y-9988460D02*
X8572563Y-9997984D01*
X8572563Y-9997984D02*
X8610658Y-9997984D01*
X8610658Y-9997984D02*
X8629705Y-9988460D01*
X8629705Y-9988460D02*
X8639229Y-9978936D01*
X8639229Y-9978936D02*
X8648753Y-9959889D01*
X8648753Y-9959889D02*
X8648753Y-9912270D01*
X8648753Y-9912270D02*
X8639229Y-9893222D01*
X8639229Y-9893222D02*
X8629705Y-9883698D01*
X8629705Y-9883698D02*
X8610658Y-9874174D01*
X8610658Y-9874174D02*
X8572563Y-9874174D01*
X8572563Y-9874174D02*
X8553515Y-9883698D01*
X8553515Y-9883698D02*
X8543991Y-9893222D01*
X8543991Y-9893222D02*
X8534467Y-9912270D01*
X8829705Y-9797984D02*
X8734467Y-9797984D01*
X8734467Y-9797984D02*
X8724944Y-9893222D01*
X8724944Y-9893222D02*
X8734467Y-9883698D01*
X8734467Y-9883698D02*
X8753515Y-9874174D01*
X8753515Y-9874174D02*
X8801134Y-9874174D01*
X8801134Y-9874174D02*
X8820182Y-9883698D01*
X8820182Y-9883698D02*
X8829705Y-9893222D01*
X8829705Y-9893222D02*
X8839229Y-9912270D01*
X8839229Y-9912270D02*
X8839229Y-9959889D01*
X8839229Y-9959889D02*
X8829705Y-9978936D01*
X8829705Y-9978936D02*
X8820182Y-9988460D01*
X8820182Y-9988460D02*
X8801134Y-9997984D01*
X8801134Y-9997984D02*
X8753515Y-9997984D01*
X8753515Y-9997984D02*
X8734467Y-9988460D01*
X8734467Y-9988460D02*
X8724944Y-9978936D01*
X8963039Y-9797984D02*
X8982086Y-9797984D01*
X8982086Y-9797984D02*
X9001134Y-9807508D01*
X9001134Y-9807508D02*
X9010658Y-9817031D01*
X9010658Y-9817031D02*
X9020182Y-9836079D01*
X9020182Y-9836079D02*
X9029705Y-9874174D01*
X9029705Y-9874174D02*
X9029705Y-9921793D01*
X9029705Y-9921793D02*
X9020182Y-9959889D01*
X9020182Y-9959889D02*
X9010658Y-9978936D01*
X9010658Y-9978936D02*
X9001134Y-9988460D01*
X9001134Y-9988460D02*
X8982086Y-9997984D01*
X8982086Y-9997984D02*
X8963039Y-9997984D01*
X8963039Y-9997984D02*
X8943991Y-9988460D01*
X8943991Y-9988460D02*
X8934467Y-9978936D01*
X8934467Y-9978936D02*
X8924944Y-9959889D01*
X8924944Y-9959889D02*
X8915420Y-9921793D01*
X8915420Y-9921793D02*
X8915420Y-9874174D01*
X8915420Y-9874174D02*
X8924944Y-9836079D01*
X8924944Y-9836079D02*
X8934467Y-9817031D01*
X8934467Y-9817031D02*
X8943991Y-9807508D01*
X8943991Y-9807508D02*
X8963039Y-9797984D01*
X9115420Y-9997984D02*
X9115420Y-9864650D01*
X9115420Y-9883698D02*
X9124944Y-9874174D01*
X9124944Y-9874174D02*
X9143991Y-9864650D01*
X9143991Y-9864650D02*
X9172563Y-9864650D01*
X9172563Y-9864650D02*
X9191610Y-9874174D01*
X9191610Y-9874174D02*
X9201134Y-9893222D01*
X9201134Y-9893222D02*
X9201134Y-9997984D01*
X9201134Y-9893222D02*
X9210658Y-9874174D01*
X9210658Y-9874174D02*
X9229705Y-9864650D01*
X9229705Y-9864650D02*
X9258277Y-9864650D01*
X9258277Y-9864650D02*
X9277325Y-9874174D01*
X9277325Y-9874174D02*
X9286848Y-9893222D01*
X9286848Y-9893222D02*
X9286848Y-9997984D01*
X9382086Y-9997984D02*
X9382086Y-9864650D01*
X9382086Y-9883698D02*
X9391610Y-9874174D01*
X9391610Y-9874174D02*
X9410658Y-9864650D01*
X9410658Y-9864650D02*
X9439229Y-9864650D01*
X9439229Y-9864650D02*
X9458277Y-9874174D01*
X9458277Y-9874174D02*
X9467801Y-9893222D01*
X9467801Y-9893222D02*
X9467801Y-9997984D01*
X9467801Y-9893222D02*
X9477325Y-9874174D01*
X9477325Y-9874174D02*
X9496372Y-9864650D01*
X9496372Y-9864650D02*
X9524944Y-9864650D01*
X9524944Y-9864650D02*
X9543991Y-9874174D01*
X9543991Y-9874174D02*
X9553515Y-9893222D01*
X9553515Y-9893222D02*
X9553515Y-9997984D01*
X9943991Y-9788460D02*
X9772563Y-10045603D01*
X10201134Y-9797984D02*
X10220182Y-9797984D01*
X10220182Y-9797984D02*
X10239229Y-9807508D01*
X10239229Y-9807508D02*
X10248753Y-9817031D01*
X10248753Y-9817031D02*
X10258277Y-9836079D01*
X10258277Y-9836079D02*
X10267801Y-9874174D01*
X10267801Y-9874174D02*
X10267801Y-9921793D01*
X10267801Y-9921793D02*
X10258277Y-9959889D01*
X10258277Y-9959889D02*
X10248753Y-9978936D01*
X10248753Y-9978936D02*
X10239229Y-9988460D01*
X10239229Y-9988460D02*
X10220182Y-9997984D01*
X10220182Y-9997984D02*
X10201134Y-9997984D01*
X10201134Y-9997984D02*
X10182087Y-9988460D01*
X10182087Y-9988460D02*
X10172563Y-9978936D01*
X10172563Y-9978936D02*
X10163039Y-9959889D01*
X10163039Y-9959889D02*
X10153515Y-9921793D01*
X10153515Y-9921793D02*
X10153515Y-9874174D01*
X10153515Y-9874174D02*
X10163039Y-9836079D01*
X10163039Y-9836079D02*
X10172563Y-9817031D01*
X10172563Y-9817031D02*
X10182087Y-9807508D01*
X10182087Y-9807508D02*
X10201134Y-9797984D01*
X10353515Y-9978936D02*
X10363039Y-9988460D01*
X10363039Y-9988460D02*
X10353515Y-9997984D01*
X10353515Y-9997984D02*
X10343991Y-9988460D01*
X10343991Y-9988460D02*
X10353515Y-9978936D01*
X10353515Y-9978936D02*
X10353515Y-9997984D01*
X10486848Y-9797984D02*
X10505896Y-9797984D01*
X10505896Y-9797984D02*
X10524944Y-9807508D01*
X10524944Y-9807508D02*
X10534468Y-9817031D01*
X10534468Y-9817031D02*
X10543991Y-9836079D01*
X10543991Y-9836079D02*
X10553515Y-9874174D01*
X10553515Y-9874174D02*
X10553515Y-9921793D01*
X10553515Y-9921793D02*
X10543991Y-9959889D01*
X10543991Y-9959889D02*
X10534468Y-9978936D01*
X10534468Y-9978936D02*
X10524944Y-9988460D01*
X10524944Y-9988460D02*
X10505896Y-9997984D01*
X10505896Y-9997984D02*
X10486848Y-9997984D01*
X10486848Y-9997984D02*
X10467801Y-9988460D01*
X10467801Y-9988460D02*
X10458277Y-9978936D01*
X10458277Y-9978936D02*
X10448753Y-9959889D01*
X10448753Y-9959889D02*
X10439229Y-9921793D01*
X10439229Y-9921793D02*
X10439229Y-9874174D01*
X10439229Y-9874174D02*
X10448753Y-9836079D01*
X10448753Y-9836079D02*
X10458277Y-9817031D01*
X10458277Y-9817031D02*
X10467801Y-9807508D01*
X10467801Y-9807508D02*
X10486848Y-9797984D01*
X10629706Y-9817031D02*
X10639229Y-9807508D01*
X10639229Y-9807508D02*
X10658277Y-9797984D01*
X10658277Y-9797984D02*
X10705896Y-9797984D01*
X10705896Y-9797984D02*
X10724944Y-9807508D01*
X10724944Y-9807508D02*
X10734468Y-9817031D01*
X10734468Y-9817031D02*
X10743991Y-9836079D01*
X10743991Y-9836079D02*
X10743991Y-9855127D01*
X10743991Y-9855127D02*
X10734468Y-9883698D01*
X10734468Y-9883698D02*
X10620182Y-9997984D01*
X10620182Y-9997984D02*
X10743991Y-9997984D01*
X10924944Y-9797984D02*
X10829706Y-9797984D01*
X10829706Y-9797984D02*
X10820182Y-9893222D01*
X10820182Y-9893222D02*
X10829706Y-9883698D01*
X10829706Y-9883698D02*
X10848753Y-9874174D01*
X10848753Y-9874174D02*
X10896372Y-9874174D01*
X10896372Y-9874174D02*
X10915420Y-9883698D01*
X10915420Y-9883698D02*
X10924944Y-9893222D01*
X10924944Y-9893222D02*
X10934468Y-9912270D01*
X10934468Y-9912270D02*
X10934468Y-9959889D01*
X10934468Y-9959889D02*
X10924944Y-9978936D01*
X10924944Y-9978936D02*
X10915420Y-9988460D01*
X10915420Y-9988460D02*
X10896372Y-9997984D01*
X10896372Y-9997984D02*
X10848753Y-9997984D01*
X10848753Y-9997984D02*
X10829706Y-9988460D01*
X10829706Y-9988460D02*
X10820182Y-9978936D01*
X11105896Y-9797984D02*
X11067801Y-9797984D01*
X11067801Y-9797984D02*
X11048753Y-9807508D01*
X11048753Y-9807508D02*
X11039229Y-9817031D01*
X11039229Y-9817031D02*
X11020182Y-9845603D01*
X11020182Y-9845603D02*
X11010658Y-9883698D01*
X11010658Y-9883698D02*
X11010658Y-9959889D01*
X11010658Y-9959889D02*
X11020182Y-9978936D01*
X11020182Y-9978936D02*
X11029706Y-9988460D01*
X11029706Y-9988460D02*
X11048753Y-9997984D01*
X11048753Y-9997984D02*
X11086849Y-9997984D01*
X11086849Y-9997984D02*
X11105896Y-9988460D01*
X11105896Y-9988460D02*
X11115420Y-9978936D01*
X11115420Y-9978936D02*
X11124944Y-9959889D01*
X11124944Y-9959889D02*
X11124944Y-9912270D01*
X11124944Y-9912270D02*
X11115420Y-9893222D01*
X11115420Y-9893222D02*
X11105896Y-9883698D01*
X11105896Y-9883698D02*
X11086849Y-9874174D01*
X11086849Y-9874174D02*
X11048753Y-9874174D01*
X11048753Y-9874174D02*
X11029706Y-9883698D01*
X11029706Y-9883698D02*
X11020182Y-9893222D01*
X11020182Y-9893222D02*
X11010658Y-9912270D01*
X11201134Y-9797984D02*
X11201134Y-9836079D01*
X11277325Y-9797984D02*
X11277325Y-9836079D01*
X11572563Y-10074174D02*
X11563039Y-10064650D01*
X11563039Y-10064650D02*
X11543991Y-10036079D01*
X11543991Y-10036079D02*
X11534468Y-10017031D01*
X11534468Y-10017031D02*
X11524944Y-9988460D01*
X11524944Y-9988460D02*
X11515420Y-9940841D01*
X11515420Y-9940841D02*
X11515420Y-9902746D01*
X11515420Y-9902746D02*
X11524944Y-9855127D01*
X11524944Y-9855127D02*
X11534468Y-9826555D01*
X11534468Y-9826555D02*
X11543991Y-9807508D01*
X11543991Y-9807508D02*
X11563039Y-9778936D01*
X11563039Y-9778936D02*
X11572563Y-9769412D01*
X11677325Y-9883698D02*
X11658277Y-9874174D01*
X11658277Y-9874174D02*
X11648753Y-9864650D01*
X11648753Y-9864650D02*
X11639229Y-9845603D01*
X11639229Y-9845603D02*
X11639229Y-9836079D01*
X11639229Y-9836079D02*
X11648753Y-9817031D01*
X11648753Y-9817031D02*
X11658277Y-9807508D01*
X11658277Y-9807508D02*
X11677325Y-9797984D01*
X11677325Y-9797984D02*
X11715420Y-9797984D01*
X11715420Y-9797984D02*
X11734468Y-9807508D01*
X11734468Y-9807508D02*
X11743991Y-9817031D01*
X11743991Y-9817031D02*
X11753515Y-9836079D01*
X11753515Y-9836079D02*
X11753515Y-9845603D01*
X11753515Y-9845603D02*
X11743991Y-9864650D01*
X11743991Y-9864650D02*
X11734468Y-9874174D01*
X11734468Y-9874174D02*
X11715420Y-9883698D01*
X11715420Y-9883698D02*
X11677325Y-9883698D01*
X11677325Y-9883698D02*
X11658277Y-9893222D01*
X11658277Y-9893222D02*
X11648753Y-9902746D01*
X11648753Y-9902746D02*
X11639229Y-9921793D01*
X11639229Y-9921793D02*
X11639229Y-9959889D01*
X11639229Y-9959889D02*
X11648753Y-9978936D01*
X11648753Y-9978936D02*
X11658277Y-9988460D01*
X11658277Y-9988460D02*
X11677325Y-9997984D01*
X11677325Y-9997984D02*
X11715420Y-9997984D01*
X11715420Y-9997984D02*
X11734468Y-9988460D01*
X11734468Y-9988460D02*
X11743991Y-9978936D01*
X11743991Y-9978936D02*
X11753515Y-9959889D01*
X11753515Y-9959889D02*
X11753515Y-9921793D01*
X11753515Y-9921793D02*
X11743991Y-9902746D01*
X11743991Y-9902746D02*
X11734468Y-9893222D01*
X11734468Y-9893222D02*
X11715420Y-9883698D01*
X11991610Y-9997984D02*
X11991610Y-9797984D01*
X12077325Y-9997984D02*
X12077325Y-9893222D01*
X12077325Y-9893222D02*
X12067801Y-9874174D01*
X12067801Y-9874174D02*
X12048753Y-9864650D01*
X12048753Y-9864650D02*
X12020182Y-9864650D01*
X12020182Y-9864650D02*
X12001134Y-9874174D01*
X12001134Y-9874174D02*
X11991610Y-9883698D01*
X12201134Y-9997984D02*
X12182087Y-9988460D01*
X12182087Y-9988460D02*
X12172563Y-9978936D01*
X12172563Y-9978936D02*
X12163039Y-9959889D01*
X12163039Y-9959889D02*
X12163039Y-9902746D01*
X12163039Y-9902746D02*
X12172563Y-9883698D01*
X12172563Y-9883698D02*
X12182087Y-9874174D01*
X12182087Y-9874174D02*
X12201134Y-9864650D01*
X12201134Y-9864650D02*
X12229706Y-9864650D01*
X12229706Y-9864650D02*
X12248753Y-9874174D01*
X12248753Y-9874174D02*
X12258277Y-9883698D01*
X12258277Y-9883698D02*
X12267801Y-9902746D01*
X12267801Y-9902746D02*
X12267801Y-9959889D01*
X12267801Y-9959889D02*
X12258277Y-9978936D01*
X12258277Y-9978936D02*
X12248753Y-9988460D01*
X12248753Y-9988460D02*
X12229706Y-9997984D01*
X12229706Y-9997984D02*
X12201134Y-9997984D01*
X12382087Y-9997984D02*
X12363039Y-9988460D01*
X12363039Y-9988460D02*
X12353515Y-9969412D01*
X12353515Y-9969412D02*
X12353515Y-9797984D01*
X12534468Y-9988460D02*
X12515420Y-9997984D01*
X12515420Y-9997984D02*
X12477325Y-9997984D01*
X12477325Y-9997984D02*
X12458277Y-9988460D01*
X12458277Y-9988460D02*
X12448753Y-9969412D01*
X12448753Y-9969412D02*
X12448753Y-9893222D01*
X12448753Y-9893222D02*
X12458277Y-9874174D01*
X12458277Y-9874174D02*
X12477325Y-9864650D01*
X12477325Y-9864650D02*
X12515420Y-9864650D01*
X12515420Y-9864650D02*
X12534468Y-9874174D01*
X12534468Y-9874174D02*
X12543991Y-9893222D01*
X12543991Y-9893222D02*
X12543991Y-9912270D01*
X12543991Y-9912270D02*
X12448753Y-9931317D01*
X12620182Y-9988460D02*
X12639230Y-9997984D01*
X12639230Y-9997984D02*
X12677325Y-9997984D01*
X12677325Y-9997984D02*
X12696372Y-9988460D01*
X12696372Y-9988460D02*
X12705896Y-9969412D01*
X12705896Y-9969412D02*
X12705896Y-9959889D01*
X12705896Y-9959889D02*
X12696372Y-9940841D01*
X12696372Y-9940841D02*
X12677325Y-9931317D01*
X12677325Y-9931317D02*
X12648753Y-9931317D01*
X12648753Y-9931317D02*
X12629706Y-9921793D01*
X12629706Y-9921793D02*
X12620182Y-9902746D01*
X12620182Y-9902746D02*
X12620182Y-9893222D01*
X12620182Y-9893222D02*
X12629706Y-9874174D01*
X12629706Y-9874174D02*
X12648753Y-9864650D01*
X12648753Y-9864650D02*
X12677325Y-9864650D01*
X12677325Y-9864650D02*
X12696372Y-9874174D01*
X12772563Y-10074174D02*
X12782087Y-10064650D01*
X12782087Y-10064650D02*
X12801134Y-10036079D01*
X12801134Y-10036079D02*
X12810658Y-10017031D01*
X12810658Y-10017031D02*
X12820182Y-9988460D01*
X12820182Y-9988460D02*
X12829706Y-9940841D01*
X12829706Y-9940841D02*
X12829706Y-9902746D01*
X12829706Y-9902746D02*
X12820182Y-9855127D01*
X12820182Y-9855127D02*
X12810658Y-9826555D01*
X12810658Y-9826555D02*
X12801134Y-9807508D01*
X12801134Y-9807508D02*
X12782087Y-9778936D01*
X12782087Y-9778936D02*
X12772563Y-9769412D01*
X7897500Y-10070500D02*
X7897500Y-10270500D01*
X7797500Y-10170500D02*
X7997500Y-10170500D01*
X8248753Y-10081031D02*
X8258277Y-10071508D01*
X8258277Y-10071508D02*
X8277324Y-10061984D01*
X8277324Y-10061984D02*
X8324943Y-10061984D01*
X8324943Y-10061984D02*
X8343991Y-10071508D01*
X8343991Y-10071508D02*
X8353515Y-10081031D01*
X8353515Y-10081031D02*
X8363039Y-10100079D01*
X8363039Y-10100079D02*
X8363039Y-10119127D01*
X8363039Y-10119127D02*
X8353515Y-10147698D01*
X8353515Y-10147698D02*
X8239229Y-10261984D01*
X8239229Y-10261984D02*
X8363039Y-10261984D01*
X8448753Y-10242936D02*
X8458277Y-10252460D01*
X8458277Y-10252460D02*
X8448753Y-10261984D01*
X8448753Y-10261984D02*
X8439229Y-10252460D01*
X8439229Y-10252460D02*
X8448753Y-10242936D01*
X8448753Y-10242936D02*
X8448753Y-10261984D01*
X8534467Y-10081031D02*
X8543991Y-10071508D01*
X8543991Y-10071508D02*
X8563039Y-10061984D01*
X8563039Y-10061984D02*
X8610658Y-10061984D01*
X8610658Y-10061984D02*
X8629705Y-10071508D01*
X8629705Y-10071508D02*
X8639229Y-10081031D01*
X8639229Y-10081031D02*
X8648753Y-10100079D01*
X8648753Y-10100079D02*
X8648753Y-10119127D01*
X8648753Y-10119127D02*
X8639229Y-10147698D01*
X8639229Y-10147698D02*
X8524944Y-10261984D01*
X8524944Y-10261984D02*
X8648753Y-10261984D01*
X8772563Y-10061984D02*
X8791610Y-10061984D01*
X8791610Y-10061984D02*
X8810658Y-10071508D01*
X8810658Y-10071508D02*
X8820182Y-10081031D01*
X8820182Y-10081031D02*
X8829705Y-10100079D01*
X8829705Y-10100079D02*
X8839229Y-10138174D01*
X8839229Y-10138174D02*
X8839229Y-10185793D01*
X8839229Y-10185793D02*
X8829705Y-10223889D01*
X8829705Y-10223889D02*
X8820182Y-10242936D01*
X8820182Y-10242936D02*
X8810658Y-10252460D01*
X8810658Y-10252460D02*
X8791610Y-10261984D01*
X8791610Y-10261984D02*
X8772563Y-10261984D01*
X8772563Y-10261984D02*
X8753515Y-10252460D01*
X8753515Y-10252460D02*
X8743991Y-10242936D01*
X8743991Y-10242936D02*
X8734467Y-10223889D01*
X8734467Y-10223889D02*
X8724944Y-10185793D01*
X8724944Y-10185793D02*
X8724944Y-10138174D01*
X8724944Y-10138174D02*
X8734467Y-10100079D01*
X8734467Y-10100079D02*
X8743991Y-10081031D01*
X8743991Y-10081031D02*
X8753515Y-10071508D01*
X8753515Y-10071508D02*
X8772563Y-10061984D01*
X8963039Y-10061984D02*
X8982086Y-10061984D01*
X8982086Y-10061984D02*
X9001134Y-10071508D01*
X9001134Y-10071508D02*
X9010658Y-10081031D01*
X9010658Y-10081031D02*
X9020182Y-10100079D01*
X9020182Y-10100079D02*
X9029705Y-10138174D01*
X9029705Y-10138174D02*
X9029705Y-10185793D01*
X9029705Y-10185793D02*
X9020182Y-10223889D01*
X9020182Y-10223889D02*
X9010658Y-10242936D01*
X9010658Y-10242936D02*
X9001134Y-10252460D01*
X9001134Y-10252460D02*
X8982086Y-10261984D01*
X8982086Y-10261984D02*
X8963039Y-10261984D01*
X8963039Y-10261984D02*
X8943991Y-10252460D01*
X8943991Y-10252460D02*
X8934467Y-10242936D01*
X8934467Y-10242936D02*
X8924944Y-10223889D01*
X8924944Y-10223889D02*
X8915420Y-10185793D01*
X8915420Y-10185793D02*
X8915420Y-10138174D01*
X8915420Y-10138174D02*
X8924944Y-10100079D01*
X8924944Y-10100079D02*
X8934467Y-10081031D01*
X8934467Y-10081031D02*
X8943991Y-10071508D01*
X8943991Y-10071508D02*
X8963039Y-10061984D01*
X9115420Y-10261984D02*
X9115420Y-10128650D01*
X9115420Y-10147698D02*
X9124944Y-10138174D01*
X9124944Y-10138174D02*
X9143991Y-10128650D01*
X9143991Y-10128650D02*
X9172563Y-10128650D01*
X9172563Y-10128650D02*
X9191610Y-10138174D01*
X9191610Y-10138174D02*
X9201134Y-10157222D01*
X9201134Y-10157222D02*
X9201134Y-10261984D01*
X9201134Y-10157222D02*
X9210658Y-10138174D01*
X9210658Y-10138174D02*
X9229705Y-10128650D01*
X9229705Y-10128650D02*
X9258277Y-10128650D01*
X9258277Y-10128650D02*
X9277325Y-10138174D01*
X9277325Y-10138174D02*
X9286848Y-10157222D01*
X9286848Y-10157222D02*
X9286848Y-10261984D01*
X9382086Y-10261984D02*
X9382086Y-10128650D01*
X9382086Y-10147698D02*
X9391610Y-10138174D01*
X9391610Y-10138174D02*
X9410658Y-10128650D01*
X9410658Y-10128650D02*
X9439229Y-10128650D01*
X9439229Y-10128650D02*
X9458277Y-10138174D01*
X9458277Y-10138174D02*
X9467801Y-10157222D01*
X9467801Y-10157222D02*
X9467801Y-10261984D01*
X9467801Y-10157222D02*
X9477325Y-10138174D01*
X9477325Y-10138174D02*
X9496372Y-10128650D01*
X9496372Y-10128650D02*
X9524944Y-10128650D01*
X9524944Y-10128650D02*
X9543991Y-10138174D01*
X9543991Y-10138174D02*
X9553515Y-10157222D01*
X9553515Y-10157222D02*
X9553515Y-10261984D01*
X9943991Y-10052460D02*
X9772563Y-10309603D01*
X10201134Y-10061984D02*
X10220182Y-10061984D01*
X10220182Y-10061984D02*
X10239229Y-10071508D01*
X10239229Y-10071508D02*
X10248753Y-10081031D01*
X10248753Y-10081031D02*
X10258277Y-10100079D01*
X10258277Y-10100079D02*
X10267801Y-10138174D01*
X10267801Y-10138174D02*
X10267801Y-10185793D01*
X10267801Y-10185793D02*
X10258277Y-10223889D01*
X10258277Y-10223889D02*
X10248753Y-10242936D01*
X10248753Y-10242936D02*
X10239229Y-10252460D01*
X10239229Y-10252460D02*
X10220182Y-10261984D01*
X10220182Y-10261984D02*
X10201134Y-10261984D01*
X10201134Y-10261984D02*
X10182087Y-10252460D01*
X10182087Y-10252460D02*
X10172563Y-10242936D01*
X10172563Y-10242936D02*
X10163039Y-10223889D01*
X10163039Y-10223889D02*
X10153515Y-10185793D01*
X10153515Y-10185793D02*
X10153515Y-10138174D01*
X10153515Y-10138174D02*
X10163039Y-10100079D01*
X10163039Y-10100079D02*
X10172563Y-10081031D01*
X10172563Y-10081031D02*
X10182087Y-10071508D01*
X10182087Y-10071508D02*
X10201134Y-10061984D01*
X10353515Y-10242936D02*
X10363039Y-10252460D01*
X10363039Y-10252460D02*
X10353515Y-10261984D01*
X10353515Y-10261984D02*
X10343991Y-10252460D01*
X10343991Y-10252460D02*
X10353515Y-10242936D01*
X10353515Y-10242936D02*
X10353515Y-10261984D01*
X10486848Y-10061984D02*
X10505896Y-10061984D01*
X10505896Y-10061984D02*
X10524944Y-10071508D01*
X10524944Y-10071508D02*
X10534468Y-10081031D01*
X10534468Y-10081031D02*
X10543991Y-10100079D01*
X10543991Y-10100079D02*
X10553515Y-10138174D01*
X10553515Y-10138174D02*
X10553515Y-10185793D01*
X10553515Y-10185793D02*
X10543991Y-10223889D01*
X10543991Y-10223889D02*
X10534468Y-10242936D01*
X10534468Y-10242936D02*
X10524944Y-10252460D01*
X10524944Y-10252460D02*
X10505896Y-10261984D01*
X10505896Y-10261984D02*
X10486848Y-10261984D01*
X10486848Y-10261984D02*
X10467801Y-10252460D01*
X10467801Y-10252460D02*
X10458277Y-10242936D01*
X10458277Y-10242936D02*
X10448753Y-10223889D01*
X10448753Y-10223889D02*
X10439229Y-10185793D01*
X10439229Y-10185793D02*
X10439229Y-10138174D01*
X10439229Y-10138174D02*
X10448753Y-10100079D01*
X10448753Y-10100079D02*
X10458277Y-10081031D01*
X10458277Y-10081031D02*
X10467801Y-10071508D01*
X10467801Y-10071508D02*
X10486848Y-10061984D01*
X10667801Y-10147698D02*
X10648753Y-10138174D01*
X10648753Y-10138174D02*
X10639229Y-10128650D01*
X10639229Y-10128650D02*
X10629706Y-10109603D01*
X10629706Y-10109603D02*
X10629706Y-10100079D01*
X10629706Y-10100079D02*
X10639229Y-10081031D01*
X10639229Y-10081031D02*
X10648753Y-10071508D01*
X10648753Y-10071508D02*
X10667801Y-10061984D01*
X10667801Y-10061984D02*
X10705896Y-10061984D01*
X10705896Y-10061984D02*
X10724944Y-10071508D01*
X10724944Y-10071508D02*
X10734468Y-10081031D01*
X10734468Y-10081031D02*
X10743991Y-10100079D01*
X10743991Y-10100079D02*
X10743991Y-10109603D01*
X10743991Y-10109603D02*
X10734468Y-10128650D01*
X10734468Y-10128650D02*
X10724944Y-10138174D01*
X10724944Y-10138174D02*
X10705896Y-10147698D01*
X10705896Y-10147698D02*
X10667801Y-10147698D01*
X10667801Y-10147698D02*
X10648753Y-10157222D01*
X10648753Y-10157222D02*
X10639229Y-10166746D01*
X10639229Y-10166746D02*
X10629706Y-10185793D01*
X10629706Y-10185793D02*
X10629706Y-10223889D01*
X10629706Y-10223889D02*
X10639229Y-10242936D01*
X10639229Y-10242936D02*
X10648753Y-10252460D01*
X10648753Y-10252460D02*
X10667801Y-10261984D01*
X10667801Y-10261984D02*
X10705896Y-10261984D01*
X10705896Y-10261984D02*
X10724944Y-10252460D01*
X10724944Y-10252460D02*
X10734468Y-10242936D01*
X10734468Y-10242936D02*
X10743991Y-10223889D01*
X10743991Y-10223889D02*
X10743991Y-10185793D01*
X10743991Y-10185793D02*
X10734468Y-10166746D01*
X10734468Y-10166746D02*
X10724944Y-10157222D01*
X10724944Y-10157222D02*
X10705896Y-10147698D01*
X10915420Y-10061984D02*
X10877325Y-10061984D01*
X10877325Y-10061984D02*
X10858277Y-10071508D01*
X10858277Y-10071508D02*
X10848753Y-10081031D01*
X10848753Y-10081031D02*
X10829706Y-10109603D01*
X10829706Y-10109603D02*
X10820182Y-10147698D01*
X10820182Y-10147698D02*
X10820182Y-10223889D01*
X10820182Y-10223889D02*
X10829706Y-10242936D01*
X10829706Y-10242936D02*
X10839229Y-10252460D01*
X10839229Y-10252460D02*
X10858277Y-10261984D01*
X10858277Y-10261984D02*
X10896372Y-10261984D01*
X10896372Y-10261984D02*
X10915420Y-10252460D01*
X10915420Y-10252460D02*
X10924944Y-10242936D01*
X10924944Y-10242936D02*
X10934468Y-10223889D01*
X10934468Y-10223889D02*
X10934468Y-10176270D01*
X10934468Y-10176270D02*
X10924944Y-10157222D01*
X10924944Y-10157222D02*
X10915420Y-10147698D01*
X10915420Y-10147698D02*
X10896372Y-10138174D01*
X10896372Y-10138174D02*
X10858277Y-10138174D01*
X10858277Y-10138174D02*
X10839229Y-10147698D01*
X10839229Y-10147698D02*
X10829706Y-10157222D01*
X10829706Y-10157222D02*
X10820182Y-10176270D01*
X11105896Y-10061984D02*
X11067801Y-10061984D01*
X11067801Y-10061984D02*
X11048753Y-10071508D01*
X11048753Y-10071508D02*
X11039229Y-10081031D01*
X11039229Y-10081031D02*
X11020182Y-10109603D01*
X11020182Y-10109603D02*
X11010658Y-10147698D01*
X11010658Y-10147698D02*
X11010658Y-10223889D01*
X11010658Y-10223889D02*
X11020182Y-10242936D01*
X11020182Y-10242936D02*
X11029706Y-10252460D01*
X11029706Y-10252460D02*
X11048753Y-10261984D01*
X11048753Y-10261984D02*
X11086849Y-10261984D01*
X11086849Y-10261984D02*
X11105896Y-10252460D01*
X11105896Y-10252460D02*
X11115420Y-10242936D01*
X11115420Y-10242936D02*
X11124944Y-10223889D01*
X11124944Y-10223889D02*
X11124944Y-10176270D01*
X11124944Y-10176270D02*
X11115420Y-10157222D01*
X11115420Y-10157222D02*
X11105896Y-10147698D01*
X11105896Y-10147698D02*
X11086849Y-10138174D01*
X11086849Y-10138174D02*
X11048753Y-10138174D01*
X11048753Y-10138174D02*
X11029706Y-10147698D01*
X11029706Y-10147698D02*
X11020182Y-10157222D01*
X11020182Y-10157222D02*
X11010658Y-10176270D01*
X11201134Y-10061984D02*
X11201134Y-10100079D01*
X11277325Y-10061984D02*
X11277325Y-10100079D01*
X11572563Y-10338174D02*
X11563039Y-10328650D01*
X11563039Y-10328650D02*
X11543991Y-10300079D01*
X11543991Y-10300079D02*
X11534468Y-10281031D01*
X11534468Y-10281031D02*
X11524944Y-10252460D01*
X11524944Y-10252460D02*
X11515420Y-10204841D01*
X11515420Y-10204841D02*
X11515420Y-10166746D01*
X11515420Y-10166746D02*
X11524944Y-10119127D01*
X11524944Y-10119127D02*
X11534468Y-10090555D01*
X11534468Y-10090555D02*
X11543991Y-10071508D01*
X11543991Y-10071508D02*
X11563039Y-10042936D01*
X11563039Y-10042936D02*
X11572563Y-10033412D01*
X11734468Y-10128650D02*
X11734468Y-10261984D01*
X11686848Y-10052460D02*
X11639229Y-10195317D01*
X11639229Y-10195317D02*
X11763039Y-10195317D01*
X11991610Y-10261984D02*
X11991610Y-10061984D01*
X12077325Y-10261984D02*
X12077325Y-10157222D01*
X12077325Y-10157222D02*
X12067801Y-10138174D01*
X12067801Y-10138174D02*
X12048753Y-10128650D01*
X12048753Y-10128650D02*
X12020182Y-10128650D01*
X12020182Y-10128650D02*
X12001134Y-10138174D01*
X12001134Y-10138174D02*
X11991610Y-10147698D01*
X12201134Y-10261984D02*
X12182087Y-10252460D01*
X12182087Y-10252460D02*
X12172563Y-10242936D01*
X12172563Y-10242936D02*
X12163039Y-10223889D01*
X12163039Y-10223889D02*
X12163039Y-10166746D01*
X12163039Y-10166746D02*
X12172563Y-10147698D01*
X12172563Y-10147698D02*
X12182087Y-10138174D01*
X12182087Y-10138174D02*
X12201134Y-10128650D01*
X12201134Y-10128650D02*
X12229706Y-10128650D01*
X12229706Y-10128650D02*
X12248753Y-10138174D01*
X12248753Y-10138174D02*
X12258277Y-10147698D01*
X12258277Y-10147698D02*
X12267801Y-10166746D01*
X12267801Y-10166746D02*
X12267801Y-10223889D01*
X12267801Y-10223889D02*
X12258277Y-10242936D01*
X12258277Y-10242936D02*
X12248753Y-10252460D01*
X12248753Y-10252460D02*
X12229706Y-10261984D01*
X12229706Y-10261984D02*
X12201134Y-10261984D01*
X12382087Y-10261984D02*
X12363039Y-10252460D01*
X12363039Y-10252460D02*
X12353515Y-10233412D01*
X12353515Y-10233412D02*
X12353515Y-10061984D01*
X12534468Y-10252460D02*
X12515420Y-10261984D01*
X12515420Y-10261984D02*
X12477325Y-10261984D01*
X12477325Y-10261984D02*
X12458277Y-10252460D01*
X12458277Y-10252460D02*
X12448753Y-10233412D01*
X12448753Y-10233412D02*
X12448753Y-10157222D01*
X12448753Y-10157222D02*
X12458277Y-10138174D01*
X12458277Y-10138174D02*
X12477325Y-10128650D01*
X12477325Y-10128650D02*
X12515420Y-10128650D01*
X12515420Y-10128650D02*
X12534468Y-10138174D01*
X12534468Y-10138174D02*
X12543991Y-10157222D01*
X12543991Y-10157222D02*
X12543991Y-10176270D01*
X12543991Y-10176270D02*
X12448753Y-10195317D01*
X12620182Y-10252460D02*
X12639230Y-10261984D01*
X12639230Y-10261984D02*
X12677325Y-10261984D01*
X12677325Y-10261984D02*
X12696372Y-10252460D01*
X12696372Y-10252460D02*
X12705896Y-10233412D01*
X12705896Y-10233412D02*
X12705896Y-10223889D01*
X12705896Y-10223889D02*
X12696372Y-10204841D01*
X12696372Y-10204841D02*
X12677325Y-10195317D01*
X12677325Y-10195317D02*
X12648753Y-10195317D01*
X12648753Y-10195317D02*
X12629706Y-10185793D01*
X12629706Y-10185793D02*
X12620182Y-10166746D01*
X12620182Y-10166746D02*
X12620182Y-10157222D01*
X12620182Y-10157222D02*
X12629706Y-10138174D01*
X12629706Y-10138174D02*
X12648753Y-10128650D01*
X12648753Y-10128650D02*
X12677325Y-10128650D01*
X12677325Y-10128650D02*
X12696372Y-10138174D01*
X12772563Y-10338174D02*
X12782087Y-10328650D01*
X12782087Y-10328650D02*
X12801134Y-10300079D01*
X12801134Y-10300079D02*
X12810658Y-10281031D01*
X12810658Y-10281031D02*
X12820182Y-10252460D01*
X12820182Y-10252460D02*
X12829706Y-10204841D01*
X12829706Y-10204841D02*
X12829706Y-10166746D01*
X12829706Y-10166746D02*
X12820182Y-10119127D01*
X12820182Y-10119127D02*
X12810658Y-10090555D01*
X12810658Y-10090555D02*
X12801134Y-10071508D01*
X12801134Y-10071508D02*
X12782087Y-10042936D01*
X12782087Y-10042936D02*
X12772563Y-10033412D01*
M02*
