M48
; DRILL file {KiCad 8.0.2} date 2025-01-22T12:10:53+0530
; FORMAT={-:-/ absolute / inch / decimal}
; #@! TF.CreationDate,2025-01-22T12:10:53+05:30
; #@! TF.GenerationSoftware,Kicad,Pcbnew,8.0.2
; #@! TF.FileFunction,MixedPlating,1,2
FMAT,2
INCH
; #@! TA.AperFunction,Plated,PTH,ViaDrill
T1C0.0118
; #@! TA.AperFunction,Plated,PTH,ComponentDrill
T2C0.0256
; #@! TA.AperFunction,Plated,PTH,ComponentDrill
T3C0.0866
%
G90
G05
T1
X3.189Y-2.9724
X3.189Y-3.0709
X3.189Y-3.1693
X3.189Y-3.2677
X3.2874Y-3.3071
X3.4055Y-3.3858
X3.4449Y-2.9921
X3.5433Y-2.9921
X3.563Y-3.3858
X3.622Y-2.7953
X3.6417Y-3.2087
X3.6417Y-3.5039
X3.6811Y-2.9921
X3.6811Y-3.1496
X3.7205Y-2.7953
X3.7205Y-3.3661
X3.7205Y-3.5039
X3.7795Y-3.2283
X3.7992Y-2.7953
X3.8189Y-3.3661
X3.8189Y-3.5039
X3.8976Y-2.7953
X3.9961Y-2.7953
X3.9961Y-3.4646
X4.0354Y-3.3268
X4.0394Y-3.0551
X4.0945Y-3.2913
X4.126Y-3.126
X4.2913Y-2.7953
X4.2913Y-2.9134
X4.2913Y-3.4055
X4.2913Y-3.4843
T2
X4.2598Y-2.9744
X4.2598Y-3.0244
X4.2598Y-3.0744
X4.2598Y-3.1244
X4.2598Y-3.1744
X4.2598Y-3.2244
X4.2598Y-3.2744
X4.2598Y-3.3244
T3
X3.248Y-2.8543
X3.248Y-3.4449
X4.1339Y-2.8543
X4.1339Y-3.4449
M30
