%TF.GenerationSoftware,KiCad,Pcbnew,8.0.2*%
%TF.CreationDate,2025-01-22T12:11:11+05:30*%
%TF.ProjectId,pogo_adapter,706f676f-5f61-4646-9170-7465722e6b69,rev?*%
%TF.SameCoordinates,Original*%
%TF.FileFunction,Copper,L1,Top*%
%TF.FilePolarity,Positive*%
%FSLAX46Y46*%
G04 Gerber Fmt 4.6, Leading zero omitted, Abs format (unit mm)*
G04 Created by KiCad (PCBNEW 8.0.2) date 2025-01-22 12:11:11*
%MOMM*%
%LPD*%
G01*
G04 APERTURE LIST*
%TA.AperFunction,SMDPad,CuDef*%
%ADD10C,1.000000*%
%TD*%
%TA.AperFunction,ComponentPad*%
%ADD11C,4.400000*%
%TD*%
%TA.AperFunction,ComponentPad*%
%ADD12R,1.000000X1.000000*%
%TD*%
%TA.AperFunction,ComponentPad*%
%ADD13O,1.000000X1.000000*%
%TD*%
%TA.AperFunction,SMDPad,CuDef*%
%ADD14R,2.400000X0.740000*%
%TD*%
%TA.AperFunction,ViaPad*%
%ADD15C,0.600000*%
%TD*%
%TA.AperFunction,Conductor*%
%ADD16C,0.200000*%
%TD*%
%TA.AperFunction,Conductor*%
%ADD17C,0.500000*%
%TD*%
%TA.AperFunction,Profile*%
%ADD18C,0.050000*%
%TD*%
G04 APERTURE END LIST*
D10*
%TO.P,FID3,*%
%TO.N,*%
X99200000Y-88200000D03*
%TD*%
%TO.P,FID2,*%
%TO.N,*%
X87000000Y-71600000D03*
%TD*%
%TO.P,FID1,*%
%TO.N,*%
X87200000Y-88200000D03*
%TD*%
D11*
%TO.P,M3,1*%
%TO.N,N/C*%
X82500000Y-87500000D03*
%TD*%
%TO.P,M4,1*%
%TO.N,N/C*%
X105000000Y-87500000D03*
%TD*%
%TO.P,M2,1*%
%TO.N,N/C*%
X105000000Y-72500000D03*
%TD*%
%TO.P,M1,1*%
%TO.N,N/C*%
X82500000Y-72500000D03*
%TD*%
D12*
%TO.P,J2,1,Pin_1*%
%TO.N,GND*%
X108200000Y-75550000D03*
D13*
%TO.P,J2,2,Pin_2*%
%TO.N,/TCK*%
X108200000Y-76820000D03*
%TO.P,J2,3,Pin_3*%
%TO.N,/TMS*%
X108200000Y-78090000D03*
%TO.P,J2,4,Pin_4*%
%TO.N,/TDI*%
X108200000Y-79360000D03*
%TO.P,J2,5,Pin_5*%
%TO.N,/TDO*%
X108200000Y-80630000D03*
%TO.P,J2,6,Pin_6*%
%TO.N,/~{RESET}*%
X108200000Y-81900000D03*
%TO.P,J2,7,Pin_7*%
%TO.N,/TXD*%
X108200000Y-83170000D03*
%TO.P,J2,8,Pin_8*%
%TO.N,/RXD*%
X108200000Y-84440000D03*
%TD*%
D14*
%TO.P,J1,1,Pin_1*%
%TO.N,P1V8*%
X90450000Y-82540000D03*
%TO.P,J1,2,Pin_2*%
%TO.N,/TMS*%
X86550000Y-82540000D03*
%TO.P,J1,3,Pin_3*%
%TO.N,GND*%
X90450000Y-81270000D03*
%TO.P,J1,4,Pin_4*%
%TO.N,/TCK*%
X86550000Y-81270000D03*
%TO.P,J1,5,Pin_5*%
%TO.N,GND*%
X90450000Y-80000000D03*
%TO.P,J1,6,Pin_6*%
%TO.N,/TDO*%
X86550000Y-80000000D03*
%TO.P,J1,7,Pin_7*%
%TO.N,/TXD*%
X90450000Y-78730000D03*
%TO.P,J1,8,Pin_8*%
%TO.N,/TDI*%
X86550000Y-78730000D03*
%TO.P,J1,9,Pin_9*%
%TO.N,/RXD*%
X90450000Y-77460000D03*
%TO.P,J1,10,Pin_10*%
%TO.N,/~{RESET}*%
X86550000Y-77460000D03*
%TD*%
D15*
%TO.N,GND*%
X83500000Y-84000000D03*
X101500000Y-88000000D03*
X97000000Y-85500000D03*
X90500000Y-86000000D03*
X86500000Y-86000000D03*
X102500000Y-84500000D03*
X96000000Y-82000000D03*
X94500000Y-85500000D03*
X97000000Y-89000000D03*
X94500000Y-89000000D03*
X92500000Y-89000000D03*
X109000000Y-88500000D03*
X109000000Y-86500000D03*
X109000000Y-74000000D03*
X109000000Y-71000000D03*
X101500000Y-71000000D03*
X99000000Y-71000000D03*
X96500000Y-71000000D03*
X94500000Y-71000000D03*
X92000000Y-71000000D03*
X81000000Y-75500000D03*
X81000000Y-78000000D03*
X81000000Y-80500000D03*
X81000000Y-83000000D03*
X87500000Y-76000000D03*
X90000000Y-76000000D03*
X93500000Y-76000000D03*
X92500000Y-81500000D03*
X93500000Y-80000000D03*
%TO.N,/TDO*%
X104800000Y-79400000D03*
%TO.N,/TCK*%
X102600000Y-77600000D03*
%TO.N,/TXD*%
X104000000Y-83600000D03*
%TD*%
D16*
%TO.N,/~{RESET}*%
X101400000Y-81900000D02*
X108200000Y-81900000D01*
X94300000Y-74800000D02*
X101400000Y-81900000D01*
X84800000Y-77200000D02*
X84800000Y-76497058D01*
X85060000Y-77460000D02*
X84800000Y-77200000D01*
X84800000Y-76497058D02*
X86497058Y-74800000D01*
X86550000Y-77460000D02*
X85060000Y-77460000D01*
X86497058Y-74800000D02*
X94300000Y-74800000D01*
D17*
%TO.N,GND*%
X92270000Y-81270000D02*
X92500000Y-81500000D01*
X90450000Y-81270000D02*
X92270000Y-81270000D01*
X90450000Y-80000000D02*
X93500000Y-80000000D01*
D16*
%TO.N,/TDO*%
X84000000Y-76165686D02*
X86165686Y-74000000D01*
X86165686Y-74000000D02*
X97000000Y-74000000D01*
X102400000Y-79400000D02*
X104800000Y-79400000D01*
X84000000Y-79600000D02*
X84000000Y-76165686D01*
X84400000Y-80000000D02*
X84000000Y-79600000D01*
X97000000Y-74000000D02*
X102400000Y-79400000D01*
X86550000Y-80000000D02*
X84400000Y-80000000D01*
%TO.N,/TDI*%
X106800000Y-79360000D02*
X108200000Y-79360000D01*
X95800000Y-74400000D02*
X101800000Y-80400000D01*
X86331372Y-74400000D02*
X95800000Y-74400000D01*
X84400000Y-76331372D02*
X86331372Y-74400000D01*
X101800000Y-80400000D02*
X105760000Y-80400000D01*
X84400000Y-78000000D02*
X84400000Y-76331372D01*
X85130000Y-78730000D02*
X84400000Y-78000000D01*
X86550000Y-78730000D02*
X85130000Y-78730000D01*
X105760000Y-80400000D02*
X106800000Y-79360000D01*
%TO.N,/TCK*%
X101800000Y-77600000D02*
X102600000Y-77600000D01*
%TO.N,/TXD*%
X99400000Y-83600000D02*
X104000000Y-83600000D01*
X94530000Y-78730000D02*
X99400000Y-83600000D01*
X90450000Y-78730000D02*
X94530000Y-78730000D01*
%TO.N,/RXD*%
X95260000Y-77460000D02*
X90450000Y-77460000D01*
X105000000Y-82600000D02*
X100400000Y-82600000D01*
X100400000Y-82600000D02*
X95260000Y-77460000D01*
X106840000Y-84440000D02*
X105000000Y-82600000D01*
X108200000Y-84440000D02*
X106840000Y-84440000D01*
%TO.N,/TCK*%
X84670000Y-81270000D02*
X86550000Y-81270000D01*
X86000000Y-73600000D02*
X83400000Y-76200000D01*
X83400000Y-76200000D02*
X83400000Y-80000000D01*
X97800000Y-73600000D02*
X86000000Y-73600000D01*
X101800000Y-77600000D02*
X97800000Y-73600000D01*
X83400000Y-80000000D02*
X84670000Y-81270000D01*
%TO.N,/TMS*%
X84140000Y-82540000D02*
X86550000Y-82540000D01*
X82800000Y-76200000D02*
X82800000Y-81200000D01*
X82800000Y-81200000D02*
X84140000Y-82540000D01*
X85800000Y-73200000D02*
X82800000Y-76200000D01*
X100200000Y-73200000D02*
X85800000Y-73200000D01*
X105090000Y-78090000D02*
X100200000Y-73200000D01*
X108200000Y-78090000D02*
X105090000Y-78090000D01*
%TD*%
%TA.AperFunction,Conductor*%
%TO.N,GND*%
G36*
X102948942Y-70519685D02*
G01*
X102994697Y-70572489D01*
X103004641Y-70641647D01*
X102976786Y-70702640D01*
X102977263Y-70703014D01*
X102975710Y-70704994D01*
X102975616Y-70705203D01*
X102974970Y-70705939D01*
X102773473Y-70963131D01*
X102604454Y-71242723D01*
X102604453Y-71242725D01*
X102470372Y-71540642D01*
X102470366Y-71540657D01*
X102373178Y-71852547D01*
X102314289Y-72173900D01*
X102294564Y-72500000D01*
X102314289Y-72826099D01*
X102373178Y-73147452D01*
X102470366Y-73459342D01*
X102470370Y-73459354D01*
X102470373Y-73459361D01*
X102604455Y-73757279D01*
X102645535Y-73825233D01*
X102773473Y-74036868D01*
X102974954Y-74294039D01*
X103205960Y-74525045D01*
X103463131Y-74726526D01*
X103463134Y-74726528D01*
X103463137Y-74726530D01*
X103742721Y-74895545D01*
X104040639Y-75029627D01*
X104040652Y-75029631D01*
X104040657Y-75029633D01*
X104352547Y-75126821D01*
X104673896Y-75185710D01*
X105000000Y-75205436D01*
X105326104Y-75185710D01*
X105647453Y-75126821D01*
X105959361Y-75029627D01*
X106020401Y-75002155D01*
X107200000Y-75002155D01*
X107200000Y-75300000D01*
X107950000Y-75300000D01*
X107950000Y-74550000D01*
X107652155Y-74550000D01*
X107592627Y-74556401D01*
X107592620Y-74556403D01*
X107457913Y-74606645D01*
X107457906Y-74606649D01*
X107342812Y-74692809D01*
X107342809Y-74692812D01*
X107256649Y-74807906D01*
X107256645Y-74807913D01*
X107206403Y-74942620D01*
X107206401Y-74942627D01*
X107200000Y-75002155D01*
X106020401Y-75002155D01*
X106257279Y-74895545D01*
X106536863Y-74726530D01*
X106794036Y-74525048D01*
X107025048Y-74294036D01*
X107226530Y-74036863D01*
X107395545Y-73757279D01*
X107529627Y-73459361D01*
X107626821Y-73147453D01*
X107685710Y-72826104D01*
X107705436Y-72500000D01*
X107685710Y-72173896D01*
X107626821Y-71852547D01*
X107529633Y-71540657D01*
X107529631Y-71540652D01*
X107529627Y-71540639D01*
X107395545Y-71242721D01*
X107226530Y-70963137D01*
X107226528Y-70963134D01*
X107226526Y-70963131D01*
X107022737Y-70703014D01*
X107023491Y-70702422D01*
X106995560Y-70642991D01*
X107004745Y-70573727D01*
X107049919Y-70520425D01*
X107116738Y-70500007D01*
X107118097Y-70500000D01*
X109376000Y-70500000D01*
X109443039Y-70519685D01*
X109488794Y-70572489D01*
X109500000Y-70624000D01*
X109500000Y-89376000D01*
X109480315Y-89443039D01*
X109427511Y-89488794D01*
X109376000Y-89500000D01*
X107118097Y-89500000D01*
X107051058Y-89480315D01*
X107005303Y-89427511D01*
X106995359Y-89358353D01*
X107023213Y-89297359D01*
X107022737Y-89296986D01*
X107024289Y-89295005D01*
X107024384Y-89294797D01*
X107025029Y-89294060D01*
X107226526Y-89036868D01*
X107226525Y-89036868D01*
X107226530Y-89036863D01*
X107395545Y-88757279D01*
X107529627Y-88459361D01*
X107626821Y-88147453D01*
X107685710Y-87826104D01*
X107705436Y-87500000D01*
X107685710Y-87173896D01*
X107626821Y-86852547D01*
X107529627Y-86540639D01*
X107395545Y-86242721D01*
X107226530Y-85963137D01*
X107226528Y-85963134D01*
X107226526Y-85963131D01*
X107025045Y-85705960D01*
X106794039Y-85474954D01*
X106536868Y-85273473D01*
X106529306Y-85268901D01*
X106257279Y-85104455D01*
X105959361Y-84970373D01*
X105959354Y-84970370D01*
X105959342Y-84970366D01*
X105647452Y-84873178D01*
X105326099Y-84814289D01*
X105000000Y-84794564D01*
X104673900Y-84814289D01*
X104352547Y-84873178D01*
X104040657Y-84970366D01*
X104040641Y-84970372D01*
X104040639Y-84970373D01*
X103884823Y-85040500D01*
X103742725Y-85104453D01*
X103742723Y-85104454D01*
X103463131Y-85273473D01*
X103205960Y-85474954D01*
X102974954Y-85705960D01*
X102773473Y-85963131D01*
X102604454Y-86242723D01*
X102604453Y-86242725D01*
X102470372Y-86540642D01*
X102470366Y-86540657D01*
X102373178Y-86852547D01*
X102314289Y-87173900D01*
X102294564Y-87500000D01*
X102314289Y-87826099D01*
X102373178Y-88147452D01*
X102470366Y-88459342D01*
X102470370Y-88459354D01*
X102470373Y-88459361D01*
X102604455Y-88757279D01*
X102768901Y-89029306D01*
X102773473Y-89036868D01*
X102977263Y-89296986D01*
X102976508Y-89297577D01*
X103004440Y-89357009D01*
X102995255Y-89426273D01*
X102950081Y-89479575D01*
X102883262Y-89499993D01*
X102881903Y-89500000D01*
X84618097Y-89500000D01*
X84551058Y-89480315D01*
X84505303Y-89427511D01*
X84495359Y-89358353D01*
X84523213Y-89297359D01*
X84522737Y-89296986D01*
X84524289Y-89295005D01*
X84524384Y-89294797D01*
X84525029Y-89294060D01*
X84726526Y-89036868D01*
X84726525Y-89036868D01*
X84726530Y-89036863D01*
X84895545Y-88757279D01*
X85029627Y-88459361D01*
X85110447Y-88200000D01*
X86194659Y-88200000D01*
X86213975Y-88396129D01*
X86271188Y-88584733D01*
X86364086Y-88758532D01*
X86364090Y-88758539D01*
X86489116Y-88910883D01*
X86641460Y-89035909D01*
X86641467Y-89035913D01*
X86815266Y-89128811D01*
X86815269Y-89128811D01*
X86815273Y-89128814D01*
X87003868Y-89186024D01*
X87200000Y-89205341D01*
X87396132Y-89186024D01*
X87584727Y-89128814D01*
X87758538Y-89035910D01*
X87910883Y-88910883D01*
X88035910Y-88758538D01*
X88128814Y-88584727D01*
X88186024Y-88396132D01*
X88205341Y-88200000D01*
X98194659Y-88200000D01*
X98213975Y-88396129D01*
X98271188Y-88584733D01*
X98364086Y-88758532D01*
X98364090Y-88758539D01*
X98489116Y-88910883D01*
X98641460Y-89035909D01*
X98641467Y-89035913D01*
X98815266Y-89128811D01*
X98815269Y-89128811D01*
X98815273Y-89128814D01*
X99003868Y-89186024D01*
X99200000Y-89205341D01*
X99396132Y-89186024D01*
X99584727Y-89128814D01*
X99758538Y-89035910D01*
X99910883Y-88910883D01*
X100035910Y-88758538D01*
X100128814Y-88584727D01*
X100186024Y-88396132D01*
X100205341Y-88200000D01*
X100186024Y-88003868D01*
X100128814Y-87815273D01*
X100128811Y-87815269D01*
X100128811Y-87815266D01*
X100035913Y-87641467D01*
X100035909Y-87641460D01*
X99910883Y-87489116D01*
X99758539Y-87364090D01*
X99758532Y-87364086D01*
X99584733Y-87271188D01*
X99584727Y-87271186D01*
X99396132Y-87213976D01*
X99396129Y-87213975D01*
X99200000Y-87194659D01*
X99003870Y-87213975D01*
X98815266Y-87271188D01*
X98641467Y-87364086D01*
X98641460Y-87364090D01*
X98489116Y-87489116D01*
X98364090Y-87641460D01*
X98364086Y-87641467D01*
X98271188Y-87815266D01*
X98213975Y-88003870D01*
X98194659Y-88200000D01*
X88205341Y-88200000D01*
X88186024Y-88003868D01*
X88128814Y-87815273D01*
X88128811Y-87815269D01*
X88128811Y-87815266D01*
X88035913Y-87641467D01*
X88035909Y-87641460D01*
X87910883Y-87489116D01*
X87758539Y-87364090D01*
X87758532Y-87364086D01*
X87584733Y-87271188D01*
X87584727Y-87271186D01*
X87396132Y-87213976D01*
X87396129Y-87213975D01*
X87200000Y-87194659D01*
X87003870Y-87213975D01*
X86815266Y-87271188D01*
X86641467Y-87364086D01*
X86641460Y-87364090D01*
X86489116Y-87489116D01*
X86364090Y-87641460D01*
X86364086Y-87641467D01*
X86271188Y-87815266D01*
X86213975Y-88003870D01*
X86194659Y-88200000D01*
X85110447Y-88200000D01*
X85126821Y-88147453D01*
X85185710Y-87826104D01*
X85205436Y-87500000D01*
X85185710Y-87173896D01*
X85126821Y-86852547D01*
X85029627Y-86540639D01*
X84895545Y-86242721D01*
X84726530Y-85963137D01*
X84726528Y-85963134D01*
X84726526Y-85963131D01*
X84525045Y-85705960D01*
X84294039Y-85474954D01*
X84036868Y-85273473D01*
X84029306Y-85268901D01*
X83757279Y-85104455D01*
X83459361Y-84970373D01*
X83459354Y-84970370D01*
X83459342Y-84970366D01*
X83147452Y-84873178D01*
X82826099Y-84814289D01*
X82500000Y-84794564D01*
X82173900Y-84814289D01*
X81852547Y-84873178D01*
X81540657Y-84970366D01*
X81540641Y-84970372D01*
X81540639Y-84970373D01*
X81384823Y-85040500D01*
X81242725Y-85104453D01*
X81242723Y-85104454D01*
X80963131Y-85273473D01*
X80703014Y-85477263D01*
X80702422Y-85476508D01*
X80642991Y-85504440D01*
X80573727Y-85495255D01*
X80520425Y-85450081D01*
X80500007Y-85383262D01*
X80500000Y-85381903D01*
X80500000Y-74618096D01*
X80519685Y-74551057D01*
X80572489Y-74505302D01*
X80641647Y-74495358D01*
X80702641Y-74523213D01*
X80703014Y-74522737D01*
X80704991Y-74524286D01*
X80705203Y-74524383D01*
X80705946Y-74525034D01*
X80963131Y-74726526D01*
X80963134Y-74726528D01*
X80963137Y-74726530D01*
X81242721Y-74895545D01*
X81540639Y-75029627D01*
X81540652Y-75029631D01*
X81540657Y-75029633D01*
X81852547Y-75126821D01*
X82173896Y-75185710D01*
X82500000Y-75205436D01*
X82647636Y-75196505D01*
X82715740Y-75212106D01*
X82764600Y-75262051D01*
X82778701Y-75330483D01*
X82753567Y-75395675D01*
X82742803Y-75407960D01*
X82431286Y-75719478D01*
X82319481Y-75831282D01*
X82319479Y-75831285D01*
X82269361Y-75918094D01*
X82269359Y-75918096D01*
X82240425Y-75968209D01*
X82240424Y-75968210D01*
X82240423Y-75968215D01*
X82199499Y-76120943D01*
X82199499Y-76120945D01*
X82199499Y-76289046D01*
X82199500Y-76289059D01*
X82199500Y-81113330D01*
X82199499Y-81113348D01*
X82199499Y-81279054D01*
X82199498Y-81279054D01*
X82240424Y-81431787D01*
X82254114Y-81455498D01*
X82254115Y-81455500D01*
X82319477Y-81568712D01*
X82319481Y-81568717D01*
X82438349Y-81687585D01*
X82438355Y-81687590D01*
X83655139Y-82904374D01*
X83655149Y-82904385D01*
X83659479Y-82908715D01*
X83659480Y-82908716D01*
X83771284Y-83020520D01*
X83840908Y-83060717D01*
X83908215Y-83099577D01*
X84060943Y-83140500D01*
X84219057Y-83140500D01*
X84835278Y-83140500D01*
X84902317Y-83160185D01*
X84934543Y-83190187D01*
X84992454Y-83267546D01*
X85038643Y-83302123D01*
X85107664Y-83353793D01*
X85107671Y-83353797D01*
X85242517Y-83404091D01*
X85242516Y-83404091D01*
X85249444Y-83404835D01*
X85302127Y-83410500D01*
X87797872Y-83410499D01*
X87857483Y-83404091D01*
X87992331Y-83353796D01*
X88107546Y-83267546D01*
X88193796Y-83152331D01*
X88244091Y-83017483D01*
X88250500Y-82957873D01*
X88250499Y-82122135D01*
X88749500Y-82122135D01*
X88749500Y-82957870D01*
X88749501Y-82957876D01*
X88755908Y-83017483D01*
X88806202Y-83152328D01*
X88806206Y-83152335D01*
X88892452Y-83267544D01*
X88892455Y-83267547D01*
X89007664Y-83353793D01*
X89007671Y-83353797D01*
X89142517Y-83404091D01*
X89142516Y-83404091D01*
X89149444Y-83404835D01*
X89202127Y-83410500D01*
X91697872Y-83410499D01*
X91757483Y-83404091D01*
X91892331Y-83353796D01*
X92007546Y-83267546D01*
X92093796Y-83152331D01*
X92144091Y-83017483D01*
X92150500Y-82957873D01*
X92150499Y-82122128D01*
X92144091Y-82062517D01*
X92120587Y-81999500D01*
X92093797Y-81927671D01*
X92093793Y-81927664D01*
X92007547Y-81812455D01*
X92007544Y-81812452D01*
X91892335Y-81726206D01*
X91892328Y-81726202D01*
X91757482Y-81675908D01*
X91757483Y-81675908D01*
X91697883Y-81669501D01*
X91697881Y-81669500D01*
X91697873Y-81669500D01*
X91697864Y-81669500D01*
X89202129Y-81669500D01*
X89202123Y-81669501D01*
X89142516Y-81675908D01*
X89007671Y-81726202D01*
X89007664Y-81726206D01*
X88892455Y-81812452D01*
X88892452Y-81812455D01*
X88806206Y-81927664D01*
X88806202Y-81927671D01*
X88755908Y-82062517D01*
X88749501Y-82122116D01*
X88749501Y-82122123D01*
X88749500Y-82122135D01*
X88250499Y-82122135D01*
X88250499Y-82122128D01*
X88244091Y-82062517D01*
X88201502Y-81948332D01*
X88196519Y-81878642D01*
X88201503Y-81861667D01*
X88244091Y-81747482D01*
X88250500Y-81687873D01*
X88250499Y-80852128D01*
X88244091Y-80792517D01*
X88201502Y-80678332D01*
X88196519Y-80608642D01*
X88201503Y-80591667D01*
X88244091Y-80477482D01*
X88250500Y-80417873D01*
X88250499Y-79582128D01*
X88244091Y-79522517D01*
X88243905Y-79522019D01*
X88214603Y-79443456D01*
X88201502Y-79408332D01*
X88196519Y-79338642D01*
X88201503Y-79321667D01*
X88244091Y-79207483D01*
X88250500Y-79147873D01*
X88250499Y-78312128D01*
X88244091Y-78252517D01*
X88242958Y-78249480D01*
X88201503Y-78138333D01*
X88196519Y-78068642D01*
X88201503Y-78051667D01*
X88239600Y-77949523D01*
X88244091Y-77937483D01*
X88250500Y-77877873D01*
X88250499Y-77042128D01*
X88244091Y-76982517D01*
X88242958Y-76979480D01*
X88193797Y-76847671D01*
X88193793Y-76847664D01*
X88107547Y-76732455D01*
X88107544Y-76732452D01*
X87992335Y-76646206D01*
X87992328Y-76646202D01*
X87857482Y-76595908D01*
X87857483Y-76595908D01*
X87797883Y-76589501D01*
X87797881Y-76589500D01*
X87797873Y-76589500D01*
X87797865Y-76589500D01*
X85856154Y-76589500D01*
X85789115Y-76569815D01*
X85743360Y-76517011D01*
X85733416Y-76447853D01*
X85762441Y-76384297D01*
X85768473Y-76377819D01*
X86162203Y-75984090D01*
X86709474Y-75436819D01*
X86770797Y-75403334D01*
X86797155Y-75400500D01*
X93999903Y-75400500D01*
X94066942Y-75420185D01*
X94087584Y-75436819D01*
X95298583Y-76647818D01*
X95332068Y-76709141D01*
X95327084Y-76778833D01*
X95285212Y-76834766D01*
X95219748Y-76859183D01*
X95210902Y-76859499D01*
X95173347Y-76859499D01*
X95173331Y-76859500D01*
X92164722Y-76859500D01*
X92097683Y-76839815D01*
X92065455Y-76809811D01*
X92007546Y-76732454D01*
X91976404Y-76709141D01*
X91892335Y-76646206D01*
X91892328Y-76646202D01*
X91757482Y-76595908D01*
X91757483Y-76595908D01*
X91697883Y-76589501D01*
X91697881Y-76589500D01*
X91697873Y-76589500D01*
X91697864Y-76589500D01*
X89202129Y-76589500D01*
X89202123Y-76589501D01*
X89142516Y-76595908D01*
X89007671Y-76646202D01*
X89007664Y-76646206D01*
X88892455Y-76732452D01*
X88892452Y-76732455D01*
X88806206Y-76847664D01*
X88806202Y-76847671D01*
X88755908Y-76982517D01*
X88749501Y-77042116D01*
X88749501Y-77042123D01*
X88749500Y-77042135D01*
X88749500Y-77877870D01*
X88749501Y-77877876D01*
X88755908Y-77937483D01*
X88798496Y-78051667D01*
X88803480Y-78121359D01*
X88798496Y-78138333D01*
X88755908Y-78252516D01*
X88749501Y-78312116D01*
X88749501Y-78312123D01*
X88749500Y-78312135D01*
X88749500Y-79147870D01*
X88749501Y-79147876D01*
X88755908Y-79207483D01*
X88806202Y-79342328D01*
X88806206Y-79342335D01*
X88892452Y-79457544D01*
X88892455Y-79457547D01*
X89007664Y-79543793D01*
X89007671Y-79543797D01*
X89142517Y-79594091D01*
X89142516Y-79594091D01*
X89149444Y-79594835D01*
X89202127Y-79600500D01*
X91697872Y-79600499D01*
X91757483Y-79594091D01*
X91892331Y-79543796D01*
X92007546Y-79457546D01*
X92065456Y-79380188D01*
X92121389Y-79338318D01*
X92164722Y-79330500D01*
X94229903Y-79330500D01*
X94296942Y-79350185D01*
X94317584Y-79366819D01*
X98915139Y-83964374D01*
X98915149Y-83964385D01*
X98919479Y-83968715D01*
X98919480Y-83968716D01*
X99031284Y-84080520D01*
X99118095Y-84130639D01*
X99118097Y-84130641D01*
X99156151Y-84152611D01*
X99168215Y-84159577D01*
X99320943Y-84200500D01*
X99479057Y-84200500D01*
X103417588Y-84200500D01*
X103484627Y-84220185D01*
X103494903Y-84227555D01*
X103497736Y-84229814D01*
X103497738Y-84229816D01*
X103650478Y-84325789D01*
X103820745Y-84385368D01*
X103820750Y-84385369D01*
X103999996Y-84405565D01*
X104000000Y-84405565D01*
X104000004Y-84405565D01*
X104179249Y-84385369D01*
X104179252Y-84385368D01*
X104179255Y-84385368D01*
X104349522Y-84325789D01*
X104502262Y-84229816D01*
X104629816Y-84102262D01*
X104725789Y-83949522D01*
X104785368Y-83779255D01*
X104790484Y-83733851D01*
X104805565Y-83600003D01*
X104805565Y-83599999D01*
X104804840Y-83593570D01*
X104801408Y-83563108D01*
X104813462Y-83494288D01*
X104860810Y-83442908D01*
X104928420Y-83425283D01*
X104994826Y-83447008D01*
X105012309Y-83461544D01*
X106355139Y-84804374D01*
X106355149Y-84804385D01*
X106359479Y-84808715D01*
X106359480Y-84808716D01*
X106471284Y-84920520D01*
X106550448Y-84966225D01*
X106608215Y-84999577D01*
X106760943Y-85040501D01*
X106760946Y-85040501D01*
X106926653Y-85040501D01*
X106926669Y-85040500D01*
X107339880Y-85040500D01*
X107406919Y-85060185D01*
X107435733Y-85085835D01*
X107489116Y-85150883D01*
X107641460Y-85275909D01*
X107641467Y-85275913D01*
X107815266Y-85368811D01*
X107815269Y-85368811D01*
X107815273Y-85368814D01*
X108003868Y-85426024D01*
X108200000Y-85445341D01*
X108396132Y-85426024D01*
X108584727Y-85368814D01*
X108758538Y-85275910D01*
X108910883Y-85150883D01*
X109035910Y-84998538D01*
X109128814Y-84824727D01*
X109186024Y-84636132D01*
X109205341Y-84440000D01*
X109186024Y-84243868D01*
X109128814Y-84055273D01*
X109035910Y-83881462D01*
X109035907Y-83881458D01*
X109032523Y-83876393D01*
X109034164Y-83875296D01*
X109010405Y-83819361D01*
X109022194Y-83750493D01*
X109032888Y-83733851D01*
X109032523Y-83733607D01*
X109035904Y-83728544D01*
X109035910Y-83728538D01*
X109128814Y-83554727D01*
X109186024Y-83366132D01*
X109205341Y-83170000D01*
X109186024Y-82973868D01*
X109128814Y-82785273D01*
X109035910Y-82611462D01*
X109035907Y-82611458D01*
X109032523Y-82606393D01*
X109034164Y-82605296D01*
X109010405Y-82549361D01*
X109022194Y-82480493D01*
X109032888Y-82463851D01*
X109032523Y-82463607D01*
X109035904Y-82458544D01*
X109035910Y-82458538D01*
X109128814Y-82284727D01*
X109186024Y-82096132D01*
X109205341Y-81900000D01*
X109186024Y-81703868D01*
X109128814Y-81515273D01*
X109035910Y-81341462D01*
X109035907Y-81341458D01*
X109032523Y-81336393D01*
X109034164Y-81335296D01*
X109010405Y-81279361D01*
X109022194Y-81210493D01*
X109032888Y-81193851D01*
X109032523Y-81193607D01*
X109035904Y-81188544D01*
X109035910Y-81188538D01*
X109128814Y-81014727D01*
X109186024Y-80826132D01*
X109205341Y-80630000D01*
X109186024Y-80433868D01*
X109128814Y-80245273D01*
X109035910Y-80071462D01*
X109035907Y-80071458D01*
X109032523Y-80066393D01*
X109034164Y-80065296D01*
X109010405Y-80009361D01*
X109022194Y-79940493D01*
X109032888Y-79923851D01*
X109032523Y-79923607D01*
X109035904Y-79918544D01*
X109035910Y-79918538D01*
X109128814Y-79744727D01*
X109186024Y-79556132D01*
X109205341Y-79360000D01*
X109186024Y-79163868D01*
X109128814Y-78975273D01*
X109035910Y-78801462D01*
X109035907Y-78801458D01*
X109032523Y-78796393D01*
X109034164Y-78795296D01*
X109010405Y-78739361D01*
X109022194Y-78670493D01*
X109032888Y-78653851D01*
X109032523Y-78653607D01*
X109035904Y-78648544D01*
X109035910Y-78648538D01*
X109128814Y-78474727D01*
X109186024Y-78286132D01*
X109205341Y-78090000D01*
X109186024Y-77893868D01*
X109128814Y-77705273D01*
X109035910Y-77531462D01*
X109035907Y-77531458D01*
X109032523Y-77526393D01*
X109034164Y-77525296D01*
X109010405Y-77469361D01*
X109022194Y-77400493D01*
X109032888Y-77383851D01*
X109032523Y-77383607D01*
X109035904Y-77378544D01*
X109035910Y-77378538D01*
X109128814Y-77204727D01*
X109186024Y-77016132D01*
X109205341Y-76820000D01*
X109186024Y-76623868D01*
X109128814Y-76435273D01*
X109127419Y-76432663D01*
X109127100Y-76431135D01*
X109126482Y-76429641D01*
X109126765Y-76429523D01*
X109113174Y-76364261D01*
X109137512Y-76299890D01*
X109143351Y-76292089D01*
X109193597Y-76157376D01*
X109193598Y-76157372D01*
X109199999Y-76097844D01*
X109200000Y-76097827D01*
X109200000Y-75800000D01*
X108409618Y-75800000D01*
X108460064Y-75749554D01*
X108502851Y-75675445D01*
X108525000Y-75592787D01*
X108525000Y-75507213D01*
X108502851Y-75424555D01*
X108460064Y-75350446D01*
X108409618Y-75300000D01*
X108450000Y-75300000D01*
X109200000Y-75300000D01*
X109200000Y-75002172D01*
X109199999Y-75002155D01*
X109193598Y-74942627D01*
X109193596Y-74942620D01*
X109143354Y-74807913D01*
X109143350Y-74807906D01*
X109057190Y-74692812D01*
X109057187Y-74692809D01*
X108942093Y-74606649D01*
X108942086Y-74606645D01*
X108807379Y-74556403D01*
X108807372Y-74556401D01*
X108747844Y-74550000D01*
X108450000Y-74550000D01*
X108450000Y-75300000D01*
X108409618Y-75300000D01*
X108399554Y-75289936D01*
X108325445Y-75247149D01*
X108242787Y-75225000D01*
X108157213Y-75225000D01*
X108074555Y-75247149D01*
X108000446Y-75289936D01*
X107939936Y-75350446D01*
X107897149Y-75424555D01*
X107875000Y-75507213D01*
X107875000Y-75592787D01*
X107897149Y-75675445D01*
X107939936Y-75749554D01*
X107990382Y-75800000D01*
X107200000Y-75800000D01*
X107200000Y-76097844D01*
X107206401Y-76157372D01*
X107206402Y-76157376D01*
X107256648Y-76292091D01*
X107262490Y-76299894D01*
X107286908Y-76365359D01*
X107273251Y-76429535D01*
X107273517Y-76429646D01*
X107272921Y-76431082D01*
X107272589Y-76432647D01*
X107271188Y-76435268D01*
X107213975Y-76623870D01*
X107194659Y-76820000D01*
X107213975Y-77016129D01*
X107271188Y-77204733D01*
X107325876Y-77307047D01*
X107340118Y-77375450D01*
X107315118Y-77440694D01*
X107258812Y-77482064D01*
X107216518Y-77489500D01*
X105390097Y-77489500D01*
X105323058Y-77469815D01*
X105302416Y-77453181D01*
X100687590Y-72838355D01*
X100687588Y-72838352D01*
X100568717Y-72719481D01*
X100568716Y-72719480D01*
X100481904Y-72669360D01*
X100481904Y-72669359D01*
X100481900Y-72669358D01*
X100431785Y-72640423D01*
X100279057Y-72599499D01*
X100120943Y-72599499D01*
X100113347Y-72599499D01*
X100113331Y-72599500D01*
X87705760Y-72599500D01*
X87638721Y-72579815D01*
X87592966Y-72527011D01*
X87583022Y-72457853D01*
X87612047Y-72394297D01*
X87627095Y-72379647D01*
X87710883Y-72310883D01*
X87835909Y-72158539D01*
X87835913Y-72158532D01*
X87928811Y-71984733D01*
X87928811Y-71984732D01*
X87928814Y-71984727D01*
X87986024Y-71796132D01*
X88005341Y-71600000D01*
X87986024Y-71403868D01*
X87928814Y-71215273D01*
X87928811Y-71215269D01*
X87928811Y-71215266D01*
X87835913Y-71041467D01*
X87835909Y-71041460D01*
X87710883Y-70889116D01*
X87558539Y-70764090D01*
X87558532Y-70764086D01*
X87501044Y-70733358D01*
X87451200Y-70684396D01*
X87435739Y-70616258D01*
X87459571Y-70550579D01*
X87515128Y-70508210D01*
X87559497Y-70500000D01*
X102881903Y-70500000D01*
X102948942Y-70519685D01*
G37*
%TD.AperFunction*%
%TD*%
D18*
X80000000Y-70000000D02*
X110000000Y-70000000D01*
X80000000Y-90000000D02*
X80000000Y-70000000D01*
X110000000Y-90000000D02*
X80000000Y-90000000D01*
X110000000Y-70000000D02*
X110000000Y-90000000D01*
M02*
