%TF.GenerationSoftware,KiCad,Pcbnew,8.0.2*%
%TF.CreationDate,2025-01-22T12:11:11+05:30*%
%TF.ProjectId,pogo_adapter,706f676f-5f61-4646-9170-7465722e6b69,rev?*%
%TF.SameCoordinates,Original*%
%TF.FileFunction,Copper,L2,Bot*%
%TF.FilePolarity,Positive*%
%FSLAX46Y46*%
G04 Gerber Fmt 4.6, Leading zero omitted, Abs format (unit mm)*
G04 Created by KiCad (PCBNEW 8.0.2) date 2025-01-22 12:11:11*
%MOMM*%
%LPD*%
G01*
G04 APERTURE LIST*
%TA.AperFunction,ComponentPad*%
%ADD10C,4.400000*%
%TD*%
%TA.AperFunction,ComponentPad*%
%ADD11R,1.000000X1.000000*%
%TD*%
%TA.AperFunction,ComponentPad*%
%ADD12O,1.000000X1.000000*%
%TD*%
%TA.AperFunction,ViaPad*%
%ADD13C,0.600000*%
%TD*%
%TA.AperFunction,Conductor*%
%ADD14C,0.200000*%
%TD*%
%TA.AperFunction,Profile*%
%ADD15C,0.050000*%
%TD*%
G04 APERTURE END LIST*
D10*
%TO.P,M3,1*%
%TO.N,N/C*%
X82500000Y-87500000D03*
%TD*%
%TO.P,M4,1*%
%TO.N,N/C*%
X105000000Y-87500000D03*
%TD*%
%TO.P,M2,1*%
%TO.N,N/C*%
X105000000Y-72500000D03*
%TD*%
%TO.P,M1,1*%
%TO.N,N/C*%
X82500000Y-72500000D03*
%TD*%
D11*
%TO.P,J2,1,Pin_1*%
%TO.N,GND*%
X108200000Y-75550000D03*
D12*
%TO.P,J2,2,Pin_2*%
%TO.N,/TCK*%
X108200000Y-76820000D03*
%TO.P,J2,3,Pin_3*%
%TO.N,/TMS*%
X108200000Y-78090000D03*
%TO.P,J2,4,Pin_4*%
%TO.N,/TDI*%
X108200000Y-79360000D03*
%TO.P,J2,5,Pin_5*%
%TO.N,/TDO*%
X108200000Y-80630000D03*
%TO.P,J2,6,Pin_6*%
%TO.N,/~{RESET}*%
X108200000Y-81900000D03*
%TO.P,J2,7,Pin_7*%
%TO.N,/TXD*%
X108200000Y-83170000D03*
%TO.P,J2,8,Pin_8*%
%TO.N,/RXD*%
X108200000Y-84440000D03*
%TD*%
D13*
%TO.N,GND*%
X83500000Y-84000000D03*
X101500000Y-88000000D03*
X97000000Y-85500000D03*
X90500000Y-86000000D03*
X86500000Y-86000000D03*
X102500000Y-84500000D03*
X96000000Y-82000000D03*
X94500000Y-85500000D03*
X97000000Y-89000000D03*
X94500000Y-89000000D03*
X92500000Y-89000000D03*
X109000000Y-88500000D03*
X109000000Y-86500000D03*
X109000000Y-74000000D03*
X109000000Y-71000000D03*
X101500000Y-71000000D03*
X99000000Y-71000000D03*
X96500000Y-71000000D03*
X94500000Y-71000000D03*
X92000000Y-71000000D03*
X81000000Y-75500000D03*
X81000000Y-78000000D03*
X81000000Y-80500000D03*
X81000000Y-83000000D03*
X87500000Y-76000000D03*
X90000000Y-76000000D03*
X93500000Y-76000000D03*
X92500000Y-81500000D03*
X93500000Y-80000000D03*
%TO.N,/TDO*%
X104800000Y-79400000D03*
%TO.N,/TCK*%
X102600000Y-77600000D03*
%TO.N,/TXD*%
X104000000Y-83600000D03*
%TD*%
D14*
%TO.N,/TXD*%
X104430000Y-83170000D02*
X104000000Y-83600000D01*
X108200000Y-83170000D02*
X104430000Y-83170000D01*
%TO.N,/TCK*%
X105180000Y-76820000D02*
X104400000Y-77600000D01*
X104400000Y-77600000D02*
X102600000Y-77600000D01*
X108200000Y-76820000D02*
X105180000Y-76820000D01*
%TO.N,/TDO*%
X106030000Y-80630000D02*
X104800000Y-79400000D01*
X108200000Y-80630000D02*
X106030000Y-80630000D01*
%TD*%
%TA.AperFunction,Conductor*%
%TO.N,GND*%
G36*
X102948942Y-70519685D02*
G01*
X102994697Y-70572489D01*
X103004641Y-70641647D01*
X102976786Y-70702640D01*
X102977263Y-70703014D01*
X102975710Y-70704994D01*
X102975616Y-70705203D01*
X102974970Y-70705939D01*
X102773473Y-70963131D01*
X102604454Y-71242723D01*
X102604453Y-71242725D01*
X102470372Y-71540642D01*
X102470366Y-71540657D01*
X102373178Y-71852547D01*
X102314289Y-72173900D01*
X102294564Y-72500000D01*
X102314289Y-72826099D01*
X102373178Y-73147452D01*
X102470366Y-73459342D01*
X102470370Y-73459354D01*
X102470373Y-73459361D01*
X102604455Y-73757279D01*
X102768901Y-74029306D01*
X102773473Y-74036868D01*
X102974954Y-74294039D01*
X103205960Y-74525045D01*
X103463131Y-74726526D01*
X103463134Y-74726528D01*
X103463137Y-74726530D01*
X103742721Y-74895545D01*
X104040639Y-75029627D01*
X104040652Y-75029631D01*
X104040657Y-75029633D01*
X104352547Y-75126821D01*
X104673896Y-75185710D01*
X105000000Y-75205436D01*
X105326104Y-75185710D01*
X105647453Y-75126821D01*
X105959361Y-75029627D01*
X106020401Y-75002155D01*
X107200000Y-75002155D01*
X107200000Y-75300000D01*
X107950000Y-75300000D01*
X107950000Y-74550000D01*
X107652155Y-74550000D01*
X107592627Y-74556401D01*
X107592620Y-74556403D01*
X107457913Y-74606645D01*
X107457906Y-74606649D01*
X107342812Y-74692809D01*
X107342809Y-74692812D01*
X107256649Y-74807906D01*
X107256645Y-74807913D01*
X107206403Y-74942620D01*
X107206401Y-74942627D01*
X107200000Y-75002155D01*
X106020401Y-75002155D01*
X106257279Y-74895545D01*
X106536863Y-74726530D01*
X106794036Y-74525048D01*
X107025048Y-74294036D01*
X107226530Y-74036863D01*
X107395545Y-73757279D01*
X107529627Y-73459361D01*
X107626821Y-73147453D01*
X107685710Y-72826104D01*
X107705436Y-72500000D01*
X107685710Y-72173896D01*
X107626821Y-71852547D01*
X107529627Y-71540639D01*
X107395545Y-71242721D01*
X107226530Y-70963137D01*
X107226528Y-70963134D01*
X107226526Y-70963131D01*
X107022737Y-70703014D01*
X107023491Y-70702422D01*
X106995560Y-70642991D01*
X107004745Y-70573727D01*
X107049919Y-70520425D01*
X107116738Y-70500007D01*
X107118097Y-70500000D01*
X109376000Y-70500000D01*
X109443039Y-70519685D01*
X109488794Y-70572489D01*
X109500000Y-70624000D01*
X109500000Y-89376000D01*
X109480315Y-89443039D01*
X109427511Y-89488794D01*
X109376000Y-89500000D01*
X107118097Y-89500000D01*
X107051058Y-89480315D01*
X107005303Y-89427511D01*
X106995359Y-89358353D01*
X107023213Y-89297359D01*
X107022737Y-89296986D01*
X107024289Y-89295005D01*
X107024384Y-89294797D01*
X107025029Y-89294060D01*
X107226526Y-89036868D01*
X107226525Y-89036868D01*
X107226530Y-89036863D01*
X107395545Y-88757279D01*
X107529627Y-88459361D01*
X107626821Y-88147453D01*
X107685710Y-87826104D01*
X107705436Y-87500000D01*
X107685710Y-87173896D01*
X107626821Y-86852547D01*
X107529627Y-86540639D01*
X107395545Y-86242721D01*
X107226530Y-85963137D01*
X107226528Y-85963134D01*
X107226526Y-85963131D01*
X107025045Y-85705960D01*
X106794039Y-85474954D01*
X106536868Y-85273473D01*
X106529306Y-85268901D01*
X106257279Y-85104455D01*
X105959361Y-84970373D01*
X105959354Y-84970370D01*
X105959342Y-84970366D01*
X105647452Y-84873178D01*
X105326099Y-84814289D01*
X105000000Y-84794564D01*
X104673900Y-84814289D01*
X104352547Y-84873178D01*
X104040657Y-84970366D01*
X104040641Y-84970372D01*
X104040639Y-84970373D01*
X103978059Y-84998538D01*
X103742725Y-85104453D01*
X103742723Y-85104454D01*
X103463131Y-85273473D01*
X103205960Y-85474954D01*
X102974954Y-85705960D01*
X102773473Y-85963131D01*
X102604454Y-86242723D01*
X102604453Y-86242725D01*
X102470372Y-86540642D01*
X102470366Y-86540657D01*
X102373178Y-86852547D01*
X102314289Y-87173900D01*
X102294564Y-87500000D01*
X102314289Y-87826099D01*
X102373178Y-88147452D01*
X102470366Y-88459342D01*
X102470370Y-88459354D01*
X102470373Y-88459361D01*
X102604455Y-88757279D01*
X102768901Y-89029306D01*
X102773473Y-89036868D01*
X102977263Y-89296986D01*
X102976508Y-89297577D01*
X103004440Y-89357009D01*
X102995255Y-89426273D01*
X102950081Y-89479575D01*
X102883262Y-89499993D01*
X102881903Y-89500000D01*
X84618097Y-89500000D01*
X84551058Y-89480315D01*
X84505303Y-89427511D01*
X84495359Y-89358353D01*
X84523213Y-89297359D01*
X84522737Y-89296986D01*
X84524289Y-89295005D01*
X84524384Y-89294797D01*
X84525029Y-89294060D01*
X84726526Y-89036868D01*
X84726525Y-89036868D01*
X84726530Y-89036863D01*
X84895545Y-88757279D01*
X85029627Y-88459361D01*
X85126821Y-88147453D01*
X85185710Y-87826104D01*
X85205436Y-87500000D01*
X85185710Y-87173896D01*
X85126821Y-86852547D01*
X85029627Y-86540639D01*
X84895545Y-86242721D01*
X84726530Y-85963137D01*
X84726528Y-85963134D01*
X84726526Y-85963131D01*
X84525045Y-85705960D01*
X84294039Y-85474954D01*
X84036868Y-85273473D01*
X84029306Y-85268901D01*
X83757279Y-85104455D01*
X83459361Y-84970373D01*
X83459354Y-84970370D01*
X83459342Y-84970366D01*
X83147452Y-84873178D01*
X82826099Y-84814289D01*
X82500000Y-84794564D01*
X82173900Y-84814289D01*
X81852547Y-84873178D01*
X81540657Y-84970366D01*
X81540641Y-84970372D01*
X81540639Y-84970373D01*
X81478059Y-84998538D01*
X81242725Y-85104453D01*
X81242723Y-85104454D01*
X80963131Y-85273473D01*
X80703014Y-85477263D01*
X80702422Y-85476508D01*
X80642991Y-85504440D01*
X80573727Y-85495255D01*
X80520425Y-85450081D01*
X80500007Y-85383262D01*
X80500000Y-85381903D01*
X80500000Y-77599996D01*
X101794435Y-77599996D01*
X101794435Y-77600003D01*
X101814630Y-77779249D01*
X101814631Y-77779254D01*
X101874211Y-77949523D01*
X101962479Y-78090000D01*
X101970184Y-78102262D01*
X102097738Y-78229816D01*
X102250478Y-78325789D01*
X102420745Y-78385368D01*
X102420750Y-78385369D01*
X102599996Y-78405565D01*
X102600000Y-78405565D01*
X102600004Y-78405565D01*
X102779249Y-78385369D01*
X102779252Y-78385368D01*
X102779255Y-78385368D01*
X102949522Y-78325789D01*
X103102262Y-78229816D01*
X103102267Y-78229810D01*
X103105097Y-78227555D01*
X103107275Y-78226665D01*
X103108158Y-78226111D01*
X103108255Y-78226265D01*
X103169783Y-78201145D01*
X103182412Y-78200500D01*
X104313331Y-78200500D01*
X104313347Y-78200501D01*
X104320943Y-78200501D01*
X104479054Y-78200501D01*
X104479057Y-78200501D01*
X104631785Y-78159577D01*
X104681904Y-78130639D01*
X104768716Y-78080520D01*
X104880520Y-77968716D01*
X104880521Y-77968713D01*
X105392418Y-77456816D01*
X105453740Y-77423334D01*
X105480098Y-77420500D01*
X107216518Y-77420500D01*
X107283557Y-77440185D01*
X107329312Y-77492989D01*
X107339256Y-77562147D01*
X107325876Y-77602953D01*
X107271188Y-77705266D01*
X107213975Y-77893870D01*
X107194659Y-78090000D01*
X107213975Y-78286129D01*
X107271188Y-78474733D01*
X107364086Y-78648532D01*
X107367473Y-78653601D01*
X107365836Y-78654694D01*
X107389596Y-78710663D01*
X107377795Y-78779529D01*
X107367109Y-78796156D01*
X107367473Y-78796399D01*
X107364086Y-78801467D01*
X107271188Y-78975266D01*
X107213975Y-79163870D01*
X107194659Y-79360000D01*
X107213975Y-79556129D01*
X107271188Y-79744733D01*
X107325876Y-79847047D01*
X107340118Y-79915450D01*
X107315118Y-79980694D01*
X107258812Y-80022064D01*
X107216518Y-80029500D01*
X106330098Y-80029500D01*
X106263059Y-80009815D01*
X106242417Y-79993181D01*
X105630700Y-79381465D01*
X105597215Y-79320142D01*
X105595163Y-79307686D01*
X105585368Y-79220745D01*
X105525789Y-79050478D01*
X105429816Y-78897738D01*
X105302262Y-78770184D01*
X105253208Y-78739361D01*
X105149523Y-78674211D01*
X104979254Y-78614631D01*
X104979249Y-78614630D01*
X104800004Y-78594435D01*
X104799996Y-78594435D01*
X104620750Y-78614630D01*
X104620745Y-78614631D01*
X104450476Y-78674211D01*
X104297737Y-78770184D01*
X104170184Y-78897737D01*
X104074211Y-79050476D01*
X104014631Y-79220745D01*
X104014630Y-79220750D01*
X103994435Y-79399996D01*
X103994435Y-79400003D01*
X104014630Y-79579249D01*
X104014631Y-79579254D01*
X104074211Y-79749523D01*
X104135490Y-79847047D01*
X104170184Y-79902262D01*
X104297738Y-80029816D01*
X104450478Y-80125789D01*
X104620745Y-80185368D01*
X104707669Y-80195161D01*
X104772080Y-80222226D01*
X104781464Y-80230699D01*
X105661284Y-81110520D01*
X105661286Y-81110521D01*
X105661290Y-81110524D01*
X105798209Y-81189573D01*
X105798216Y-81189577D01*
X105950943Y-81230501D01*
X105950945Y-81230501D01*
X106116654Y-81230501D01*
X106116670Y-81230500D01*
X107216518Y-81230500D01*
X107283557Y-81250185D01*
X107329312Y-81302989D01*
X107339256Y-81372147D01*
X107325876Y-81412953D01*
X107271188Y-81515266D01*
X107213975Y-81703870D01*
X107194659Y-81900000D01*
X107213975Y-82096129D01*
X107271188Y-82284733D01*
X107325876Y-82387047D01*
X107340118Y-82455450D01*
X107315118Y-82520694D01*
X107258812Y-82562064D01*
X107216518Y-82569500D01*
X104516669Y-82569500D01*
X104516653Y-82569499D01*
X104509057Y-82569499D01*
X104350943Y-82569499D01*
X104236397Y-82600192D01*
X104198214Y-82610423D01*
X104161626Y-82631548D01*
X104161625Y-82631548D01*
X104061282Y-82689480D01*
X103981462Y-82769299D01*
X103920139Y-82802784D01*
X103907666Y-82804837D01*
X103820750Y-82814630D01*
X103650478Y-82874210D01*
X103497737Y-82970184D01*
X103370184Y-83097737D01*
X103274211Y-83250476D01*
X103214631Y-83420745D01*
X103214630Y-83420750D01*
X103194435Y-83599996D01*
X103194435Y-83600003D01*
X103214630Y-83779249D01*
X103214631Y-83779254D01*
X103274211Y-83949523D01*
X103340654Y-84055266D01*
X103370184Y-84102262D01*
X103497738Y-84229816D01*
X103650478Y-84325789D01*
X103820745Y-84385368D01*
X103820750Y-84385369D01*
X103999996Y-84405565D01*
X104000000Y-84405565D01*
X104000004Y-84405565D01*
X104179249Y-84385369D01*
X104179252Y-84385368D01*
X104179255Y-84385368D01*
X104349522Y-84325789D01*
X104502262Y-84229816D01*
X104629816Y-84102262D01*
X104725789Y-83949522D01*
X104759372Y-83853544D01*
X104800093Y-83796770D01*
X104865046Y-83771022D01*
X104876414Y-83770500D01*
X107216518Y-83770500D01*
X107283557Y-83790185D01*
X107329312Y-83842989D01*
X107339256Y-83912147D01*
X107325876Y-83952953D01*
X107271188Y-84055266D01*
X107213975Y-84243870D01*
X107194659Y-84440000D01*
X107213975Y-84636129D01*
X107271188Y-84824733D01*
X107364086Y-84998532D01*
X107364090Y-84998539D01*
X107489116Y-85150883D01*
X107641460Y-85275909D01*
X107641467Y-85275913D01*
X107815266Y-85368811D01*
X107815269Y-85368811D01*
X107815273Y-85368814D01*
X108003868Y-85426024D01*
X108200000Y-85445341D01*
X108396132Y-85426024D01*
X108584727Y-85368814D01*
X108758538Y-85275910D01*
X108910883Y-85150883D01*
X109035910Y-84998538D01*
X109128814Y-84824727D01*
X109186024Y-84636132D01*
X109205341Y-84440000D01*
X109186024Y-84243868D01*
X109128814Y-84055273D01*
X109035910Y-83881462D01*
X109035907Y-83881458D01*
X109032523Y-83876393D01*
X109034164Y-83875296D01*
X109010405Y-83819361D01*
X109022194Y-83750493D01*
X109032888Y-83733851D01*
X109032523Y-83733607D01*
X109035904Y-83728544D01*
X109035910Y-83728538D01*
X109128814Y-83554727D01*
X109186024Y-83366132D01*
X109205341Y-83170000D01*
X109186024Y-82973868D01*
X109128814Y-82785273D01*
X109035910Y-82611462D01*
X109035907Y-82611458D01*
X109032523Y-82606393D01*
X109034164Y-82605296D01*
X109010405Y-82549361D01*
X109022194Y-82480493D01*
X109032888Y-82463851D01*
X109032523Y-82463607D01*
X109035904Y-82458544D01*
X109035910Y-82458538D01*
X109128814Y-82284727D01*
X109186024Y-82096132D01*
X109205341Y-81900000D01*
X109186024Y-81703868D01*
X109128814Y-81515273D01*
X109035910Y-81341462D01*
X109035907Y-81341458D01*
X109032523Y-81336393D01*
X109034164Y-81335296D01*
X109010405Y-81279361D01*
X109022194Y-81210493D01*
X109032888Y-81193851D01*
X109032523Y-81193607D01*
X109035904Y-81188544D01*
X109035910Y-81188538D01*
X109128814Y-81014727D01*
X109186024Y-80826132D01*
X109205341Y-80630000D01*
X109186024Y-80433868D01*
X109128814Y-80245273D01*
X109035910Y-80071462D01*
X109035907Y-80071458D01*
X109032523Y-80066393D01*
X109034164Y-80065296D01*
X109010405Y-80009361D01*
X109022194Y-79940493D01*
X109032888Y-79923851D01*
X109032523Y-79923607D01*
X109035904Y-79918544D01*
X109035910Y-79918538D01*
X109128814Y-79744727D01*
X109186024Y-79556132D01*
X109205341Y-79360000D01*
X109186024Y-79163868D01*
X109128814Y-78975273D01*
X109035910Y-78801462D01*
X109035907Y-78801458D01*
X109032523Y-78796393D01*
X109034164Y-78795296D01*
X109010405Y-78739361D01*
X109022194Y-78670493D01*
X109032888Y-78653851D01*
X109032523Y-78653607D01*
X109035904Y-78648544D01*
X109035910Y-78648538D01*
X109128814Y-78474727D01*
X109186024Y-78286132D01*
X109205341Y-78090000D01*
X109186024Y-77893868D01*
X109128814Y-77705273D01*
X109035910Y-77531462D01*
X109035907Y-77531458D01*
X109032523Y-77526393D01*
X109034164Y-77525296D01*
X109010405Y-77469361D01*
X109022194Y-77400493D01*
X109032888Y-77383851D01*
X109032523Y-77383607D01*
X109035904Y-77378544D01*
X109035910Y-77378538D01*
X109128814Y-77204727D01*
X109186024Y-77016132D01*
X109205341Y-76820000D01*
X109186024Y-76623868D01*
X109128814Y-76435273D01*
X109127419Y-76432663D01*
X109127100Y-76431135D01*
X109126482Y-76429641D01*
X109126765Y-76429523D01*
X109113174Y-76364261D01*
X109137512Y-76299890D01*
X109143351Y-76292089D01*
X109193597Y-76157376D01*
X109193598Y-76157372D01*
X109199999Y-76097844D01*
X109200000Y-76097827D01*
X109200000Y-75800000D01*
X108409618Y-75800000D01*
X108460064Y-75749554D01*
X108502851Y-75675445D01*
X108525000Y-75592787D01*
X108525000Y-75507213D01*
X108502851Y-75424555D01*
X108460064Y-75350446D01*
X108409618Y-75300000D01*
X108450000Y-75300000D01*
X109200000Y-75300000D01*
X109200000Y-75002172D01*
X109199999Y-75002155D01*
X109193598Y-74942627D01*
X109193596Y-74942620D01*
X109143354Y-74807913D01*
X109143350Y-74807906D01*
X109057190Y-74692812D01*
X109057187Y-74692809D01*
X108942093Y-74606649D01*
X108942086Y-74606645D01*
X108807379Y-74556403D01*
X108807372Y-74556401D01*
X108747844Y-74550000D01*
X108450000Y-74550000D01*
X108450000Y-75300000D01*
X108409618Y-75300000D01*
X108399554Y-75289936D01*
X108325445Y-75247149D01*
X108242787Y-75225000D01*
X108157213Y-75225000D01*
X108074555Y-75247149D01*
X108000446Y-75289936D01*
X107939936Y-75350446D01*
X107897149Y-75424555D01*
X107875000Y-75507213D01*
X107875000Y-75592787D01*
X107897149Y-75675445D01*
X107939936Y-75749554D01*
X107990382Y-75800000D01*
X107200000Y-75800000D01*
X107200000Y-76095500D01*
X107180315Y-76162539D01*
X107127511Y-76208294D01*
X107076000Y-76219500D01*
X105266670Y-76219500D01*
X105266654Y-76219499D01*
X105259058Y-76219499D01*
X105100943Y-76219499D01*
X105024579Y-76239961D01*
X104948214Y-76260423D01*
X104948209Y-76260426D01*
X104811290Y-76339475D01*
X104811282Y-76339481D01*
X104187584Y-76963181D01*
X104126261Y-76996666D01*
X104099903Y-76999500D01*
X103182412Y-76999500D01*
X103115373Y-76979815D01*
X103105097Y-76972445D01*
X103102263Y-76970185D01*
X103102262Y-76970184D01*
X103045496Y-76934515D01*
X102949523Y-76874211D01*
X102779254Y-76814631D01*
X102779249Y-76814630D01*
X102600004Y-76794435D01*
X102599996Y-76794435D01*
X102420750Y-76814630D01*
X102420745Y-76814631D01*
X102250476Y-76874211D01*
X102097737Y-76970184D01*
X101970184Y-77097737D01*
X101874211Y-77250476D01*
X101814631Y-77420745D01*
X101814630Y-77420750D01*
X101794435Y-77599996D01*
X80500000Y-77599996D01*
X80500000Y-74618096D01*
X80519685Y-74551057D01*
X80572489Y-74505302D01*
X80641647Y-74495358D01*
X80702641Y-74523213D01*
X80703014Y-74522737D01*
X80704991Y-74524286D01*
X80705203Y-74524383D01*
X80705946Y-74525034D01*
X80963131Y-74726526D01*
X80963134Y-74726528D01*
X80963137Y-74726530D01*
X81242721Y-74895545D01*
X81540639Y-75029627D01*
X81540652Y-75029631D01*
X81540657Y-75029633D01*
X81852547Y-75126821D01*
X82173896Y-75185710D01*
X82500000Y-75205436D01*
X82826104Y-75185710D01*
X83147453Y-75126821D01*
X83459361Y-75029627D01*
X83757279Y-74895545D01*
X84036863Y-74726530D01*
X84294036Y-74525048D01*
X84525048Y-74294036D01*
X84726530Y-74036863D01*
X84895545Y-73757279D01*
X85029627Y-73459361D01*
X85126821Y-73147453D01*
X85185710Y-72826104D01*
X85205436Y-72500000D01*
X85185710Y-72173896D01*
X85126821Y-71852547D01*
X85029627Y-71540639D01*
X84895545Y-71242721D01*
X84726530Y-70963137D01*
X84726528Y-70963134D01*
X84726526Y-70963131D01*
X84522737Y-70703014D01*
X84523491Y-70702422D01*
X84495560Y-70642991D01*
X84504745Y-70573727D01*
X84549919Y-70520425D01*
X84616738Y-70500007D01*
X84618097Y-70500000D01*
X102881903Y-70500000D01*
X102948942Y-70519685D01*
G37*
%TD.AperFunction*%
%TD*%
D15*
X80000000Y-70000000D02*
X110000000Y-70000000D01*
X80000000Y-90000000D02*
X80000000Y-70000000D01*
X110000000Y-90000000D02*
X80000000Y-90000000D01*
X110000000Y-70000000D02*
X110000000Y-90000000D01*
M02*
